<?xml version="1.0"?>
<svg xmlns="http://www.w3.org/2000/svg" viewBox="0 0 256 256" width="512" height="512"><path d="M68.209,12.4c-30.344,0-54.945,19.781-54.945,44.187,0,15.339,9.8,29.465,25.88,37.41a47.266,47.266,0,0,1-14.23,19.972,1.747,1.747,0,0,0,1.6,3.035c8.321-2.563,19.9-7.717,28.169-17.768,36.977,7.471,68.471-15.426,68.471-42.649C123.153,32.183,98.552,12.4,68.209,12.4Z" fill="#f0c020"/><path d="M248.638,164.443,214.554,184.31l5.569,39.361a3.817,3.817,0,0,1-5.195,4.08l-34.185-13.6a3.841,3.841,0,0,0-4.2.942l-25.649,27.3a3.825,3.825,0,0,1-6.451-1.529l-10.531-35.452a3.841,3.841,0,0,0-3.382-2.724L93.1,199.945a3.815,3.815,0,0,1-2.856-5.984l4.668-6.724h52.036a5.115,5.115,0,0,0,5.124-5.114v-9.9h4.273a3.075,3.075,0,0,0,3.068-3.079V138.419a3.073,3.073,0,0,0-3.068-3.069H95.126l-4.881-7.027a3.815,3.815,0,0,1,2.856-5.984l37.426-2.745a3.84,3.84,0,0,0,3.382-2.724L144.44,81.419a3.825,3.825,0,0,1,6.451-1.529l25.649,27.3a3.841,3.841,0,0,0,4.2.941l34.185-13.6a3.818,3.818,0,0,1,5.195,4.081l-5.569,39.36,34.084,19.868A3.826,3.826,0,0,1,248.638,164.443Z" fill="#fc5d3d"/><path d="M10.259,172.22l4.293,17.751L11.515,238.6a3.073,3.073,0,0,0,3.068,3.26H45.356a3.066,3.066,0,0,0,3.058-2.814L52.09,195.49a9.006,9.006,0,0,1,8.972-8.253h85.887a5.115,5.115,0,0,0,5.124-5.114v-9.9Z" fill="#878787"/><path d="M156.346,135.35H18.076a10.244,10.244,0,0,0-10.2,9.236l-2.39,24.262a3.087,3.087,0,0,0,3.069,3.372H156.346a3.075,3.075,0,0,0,3.068-3.079V138.419A3.073,3.073,0,0,0,156.346,135.35Z" fill="#4c4945"/><rect x="159.417" y="147.638" width="13.143" height="18.69" fill="#878787"/><path d="M207.529,214.429l-14.718-5.855a2.5,2.5,0,0,1,1.848-4.647l10.714,4.263L201.186,178.6a2.5,2.5,0,0,1,1.217-2.511l29.341-17.1a2.5,2.5,0,1,1,2.517,4.32l-27.888,16.256,4.555,32.2A2.5,2.5,0,0,1,207.529,214.429Zm-24.011-9.553-.706-.281a2.5,2.5,0,1,1,1.85-4.644l.706.281a2.5,2.5,0,0,1-1.85,4.644Z" fill="#ffcbc2"/><path d="M149.754,148.116H35.187a2.5,2.5,0,1,1,0-5H149.754a2.5,2.5,0,0,1,0,5Zm-124.567,0h-3a2.5,2.5,0,0,1,0-5h3a2.5,2.5,0,1,1,0,5Z" fill="#878787"/><path d="M40.73,236.256H33.818a2.5,2.5,0,1,1,0-5h4.615L41.527,194.6a2.5,2.5,0,0,1,4.982.42l-3.287,38.949A2.5,2.5,0,0,1,40.73,236.256Zm-16.912,0H19.934a2.5,2.5,0,1,1,0-5h3.884a2.5,2.5,0,1,1,0,5Z" fill="#afafaf"/><path d="M82.115,88a2.5,2.5,0,0,1,1.618-3.144c13.358-4.277,24.659-15.009,24.659-28.311,0-10.085-6.541-19.544-17.5-25.3a2.5,2.5,0,1,1,2.327-4.426c12.631,6.642,20.171,17.756,20.171,29.731,0,15.752-12.9,28.2-28.134,33.073A2.5,2.5,0,0,1,82.115,88Z" fill="#f9e5af"/><path d="M30.055,75.692a30.3,30.3,0,0,1-7.03-19.148c0-15.257,12.271-28.832,30.534-33.776a2.5,2.5,0,0,1,1.307,4.826c-16.055,4.347-26.841,15.981-26.841,28.95a25.349,25.349,0,0,0,5.917,16,2.5,2.5,0,1,1-3.887,3.145Z" fill="#f9e5af"/><path d="M249.9,155.68l-32.64-19.019,5.34-37.7a6.313,6.313,0,0,0-8.6-6.75l-34.19,13.6a1.132,1.132,0,0,1-.34.08,2.486,2.486,0,0,0-2.22,2.75c.136,1.318,1.409,2.983,4.4,1.82l34.2-13.61a1.331,1.331,0,0,1,1.79,1.43l-5.57,39.341a2.5,2.5,0,0,0,1.22,2.509L247.382,160a1.337,1.337,0,0,1-.009,2.291L213.292,182.15a2.509,2.509,0,0,0-1.22,2.511c.029.206,5.591,39.36,5.591,39.569a1.345,1.345,0,0,1-1.811,1.2l-34.189-13.6a6.307,6.307,0,0,0-6.941,1.549l-25.65,27.3a1.326,1.326,0,0,1-2.24-.53L136.3,204.7a6.291,6.291,0,0,0-5.58-4.5l-37.44-2.75a1.317,1.317,0,0,1-.99-2.061l3.93-5.649h50.731a7.658,7.658,0,0,0,7.619-7.62v-7.4h1.77a5.584,5.584,0,0,0,5.573-5.579v-.31h10.647a2.507,2.507,0,0,0,2.5-2.5V147.64a2.5,2.5,0,0,0-2.5-2.5H161.915v-6.722a5.575,5.575,0,0,0-5.569-5.568H96.432L92.3,126.9a1.313,1.313,0,0,1,.97-2.069l37.44-2.741a6.318,6.318,0,0,0,5.59-4.5l10.53-35.46a1.323,1.323,0,0,1,2.24-.53l14.37,15.3a2.573,2.573,0,0,0,3.53.11,2.487,2.487,0,0,0,.11-3.53l-14.37-15.3a6.323,6.323,0,0,0-10.67,2.521l-10.53,35.46a1.343,1.343,0,0,1-1.18.939l-37.42,2.74a6.321,6.321,0,0,0-4.72,9.91l2.152,3.1H18.076A12.7,12.7,0,0,0,5.392,144.34L3,168.611a5.579,5.579,0,0,0,5.29,6.095l3.742,15.484-.76,12.24a2.5,2.5,0,1,0,4.99.311l.78-12.611a2.4,2.4,0,0,0-.06-.75l-3.55-14.66h136.14v7.4a2.637,2.637,0,0,1-2.619,2.62H61.062A11.484,11.484,0,0,0,49.6,195.28l-3.68,43.551a.576.576,0,0,1-.57.529H14.582a.592.592,0,0,1-.58-.569l1.01-16.09a2.5,2.5,0,1,0-4.99-.311l-1,16.05a5.591,5.591,0,0,0,5.56,5.92h30.77a5.6,5.6,0,0,0,5.55-5.11l2.411-28.52h9.909a12.743,12.743,0,0,0,12.69-11.609l.838-9.391H90.138l-1.946,2.8a6.323,6.323,0,0,0,4.73,9.91l37.42,2.74a1.329,1.329,0,0,1,1.17.95l10.53,35.451a6.331,6.331,0,0,0,10.67,2.529l25.65-27.3a1.343,1.343,0,0,1,1.45-.34L214,230.07a6.322,6.322,0,0,0,8.6-6.75l-5.34-37.7L249.9,166.6A6.334,6.334,0,0,0,249.9,155.68Zm-79.84-5.54v13.691h-8.147V150.14ZM18.076,137.85H156.342a.585.585,0,0,1,.571.57v15.935H9.429l.938-9.524A7.717,7.717,0,0,1,18.076,137.85ZM8.558,169.72a.586.586,0,0,1-.581-.627l.959-9.738H156.913v9.785a.572.572,0,0,1-.571.58Zm62.374,28.96a7.7,7.7,0,0,1-7.71,7.05H53.736c.022-.257.827-9.774.846-10.029a6.423,6.423,0,0,1,.708-2.433l4.352,4.353a2.5,2.5,0,0,0,3.53-3.531l-4.053-4.052a6.347,6.347,0,0,1,1.943-.308H71.73Z"/><path d="M173.822,104.3a2.5,2.5,0,0,0,.11-3.54,2.574,2.574,0,0,0-3.53-.11,2.5,2.5,0,0,0,3.42,3.65Z"/><path d="M13.142,215.07a2.5,2.5,0,1,0-2.5-2.659A2.5,2.5,0,0,0,13.142,215.07Z"/><path d="M13.182,56.97a2.49,2.49,0,0,0,2.64-2.349C17.117,32.467,40.2,14.9,68.192,14.9h.03c28.714,0,52.43,18.534,52.43,41.69,0,25.264-29.568,47.4-65.48,40.2a2.5,2.5,0,0,0-2.42.859c-6.95,8.46-16.51,13.24-23.4,15.761a50.671,50.671,0,0,0,12.12-18.5,2.515,2.515,0,0,0-1.22-3.151c-9.22-4.559-16.3-11.179-20.47-19.16a2.5,2.5,0,0,0-4.43,2.32c4.33,8.27,11.45,15.26,20.6,20.241a43.555,43.555,0,0,1-12.6,16.849,4.251,4.251,0,0,0,3.9,7.38c8.19-2.53,19.77-7.61,28.39-17.42,38.286,6.922,70.01-17.191,70.01-45.38,0-25.913-25.8-46.69-57.44-46.69-30.483,0-55.9,19.372-57.38,44.42A2.505,2.505,0,0,0,13.182,56.97Z"/><path d="M16.562,63.86a2.538,2.538,0,0,0-2.98-1.89,2.487,2.487,0,0,0-1.9,2.981,2.5,2.5,0,1,0,4.88-1.091Z"/><path d="M52.7,65.03a2.5,2.5,0,0,0,2.5-2.5V41.07a2.5,2.5,0,1,0-5,0V62.53A2.5,2.5,0,0,0,52.7,65.03Z"/><path d="M50.2,76.38a2.5,2.5,0,0,0,5,0V73.39a2.5,2.5,0,1,0-5,0Z"/><path d="M68.212,65.03a2.507,2.507,0,0,0,2.5-2.5V41.07a2.5,2.5,0,0,0-5,0V62.53A2.5,2.5,0,0,0,68.212,65.03Z"/><path d="M65.712,76.38a2.5,2.5,0,0,0,5,0V73.39a2.5,2.5,0,1,0-5,0Z"/><path d="M83.712,65.03a2.5,2.5,0,0,0,2.5-2.5V41.07a2.5,2.5,0,0,0-5,0V62.53A2.5,2.5,0,0,0,83.712,65.03Z"/><path d="M81.212,76.38a2.5,2.5,0,0,0,5,0V73.39a2.5,2.5,0,1,0-5,0Z"/></svg>
