<svg height="512" viewBox="0 0 60 60" width="512" xmlns="http://www.w3.org/2000/svg"><g id="Page-1" fill="none" fill-rule="evenodd"><g id="015---Comedy-Podcast" fill-rule="nonzero"><path id="Shape" d="m51 30c.0018858 9.5082688-6.3850868 17.8314335-15.57 20.29l-3.64 7.6c-.338327.678829-1.0315318 1.1078677-1.79 1.1078677s-1.451673-.4290387-1.79-1.1078677l-3.64-7.6c-10.5184568-2.8155225-17.14009799-13.2037619-15.25182605-23.9275452 1.88827195-10.7237833 11.66001185-18.22543305 22.50754335-17.2787762 10.8475316.9466568 19.172123 10.0275614 19.1742827 20.9163214z" fill="#ef314c"/><path id="Shape" d="m30 9c-.51 0-1 0-1.5.08 10.2013679.76226327 18.3691996 8.7643908 19.3403611 18.9479952.9711615 10.1836043-5.5369505 19.5853062-15.4103611 22.2620048l-3.64 7.6c-.079145.1513219-.1765377.2923734-.29.42.4385924.4999266 1.0969971.7491378 1.7566921.6649214.659695-.0842163 1.2343757-.4908427 1.5333079-1.0849214l3.64-7.6c10.1889855-2.7189339 16.7813251-12.5726181 15.4063347-23.0281157-1.3749903-10.4554976-10.2908159-18.26972102-20.8363347-18.2618843z" fill="#bb193b"/><path id="Shape" d="m30 46c6 0 13-8 13-14v-13c-3.5441862-3.2521672-8.1899766-5.0390097-13-5-4.8100234-.0390097-9.4558138 1.7478328-13 5v13c0 6 7 14 13 14z" fill="#ffdc00"/><path id="Shape" d="m30 14c-.5 0-1 0-1.5.07 4.2837879.2820923 8.3420001 2.0218302 11.5 4.93v13c0 5.51-5.89 12.68-11.5 13.82.4921226.1134785.9950011.1738239 1.5.18 6 0 13-8 13-14v-13c-3.5441862-3.2521672-8.1899766-5.0390097-13-5z" fill="#fec108"/><path id="Shape" d="m30 38c6 0 7-6 7-6-2.1128445 1.2798571-4.5299245 1.9704514-7 2-2.4700755-.0295486-4.8871555-.7201429-7-2 0 0 1 6 7 6z" fill="#37474f"/><g fill="#000"><path id="Shape" d="m41.28 4.28c.4748325-.00090886.883553-.33560761.9780733-.80093824.0945202-.46533064-.1512258-.9329679-.5880733-1.11906176-3.6909898-1.56578372-7.6606346-2.36855681-11.67-2.36-1.3846291.00295982-2.7675818.09649285-4.14.28-.5522847.07731987-.9373199.58771525-.86 1.14s.5877153.93731986 1.14.86c4.9998489-.70152929 10.0963562-.03811952 14.75 1.92.1221817.05610928.2555956.08347623.39.08z"/><path id="Shape" d="m23 1.85c-.0721334-.25645198-.2436137-.47352086-.4764036-.60305722-.23279-.12953636-.5076446-.16083119-.7635964-.08694278-1.1522683.33406555-2.2841723.73473953-3.39 1.2-.4368475.18609386-.6825935.65373112-.5880733 1.11906176.0945203.46533063.5032408.80002938.9780733.80093824.1344044.00347623.2678183-.02389072.39-.08 1.034159-.43421705 2.0925978-.80817649 3.17-1.12.5251449-.1547378.8282405-.7029841.68-1.23z"/><path id="Shape" d="m20.66 7.89c5.9736866-2.51015765 12.7063134-2.51015765 18.68 0 .1239863.05038299.2561911.07750192.39.08.5440005.10769551 1.0723045-.24599954 1.18-.79000001.1076955-.54400046-.2459995-1.07230445-.79-1.17999999-6.4724808-2.72017719-13.7675192-2.72017719-20.24 0-.5108634.21539106-.750391.80413661-.535 1.31499999.2153911.51086339.8041366.75039105 1.315.53500001z"/><path id="Shape" d="m1.29 35h.14c.5422674-.077514.92124561-.5768735.85-1.12-.17865675-1.285758-.27219367-2.5819126-.28-3.88-.00299613-3.7459019.75216244-7.4536624 2.22-10.9.14111991-.3286843.09616908-.7076878-.11791996-.9942434-.21408903-.2865556-.56479106-.4371287-.92-.395-.35520895.0421288-.66096014.2705591-.80208004.5992434-2.09679774 4.9885972-2.81515778 10.4488242-2.08 15.81.06057605.501169.48518533.8785995.99.88z"/><path id="Shape" d="m1.86 37c-.25460783.0742606-.46928767.2466223-.59681241.4791674s-.15744821.5062248-.08318759.7608326c.33113556 1.1532087.73187044 2.2852847 1.2 3.39.1564992.3695049.5187198.609673.92.61.13380889-.0024981.26601366-.029617.39-.08.50778259-.2157051.74494317-.8018944.53-1.31-.43473331-1.0237402-.80871583-2.0722269-1.12-3.14-.06780055-.2601408-.23748648-.482027-.47078139-.6156071-.23329492-.1335802-.51054796-.1676027-.76921861-.0943929z"/><path id="Shape" d="m7 40.71c.13431127.002446.26749827-.0248744.39-.08.50778259-.2157051.74494317-.8018944.53-1.31-2.50677448-5.974368-2.50677448-12.705632 0-18.68.21494317-.5081056-.02221741-1.0942949-.53-1.31-.50810558-.2149432-1.09429492.0222174-1.31.53-2.72017719 6.4724808-2.72017719 13.7675192 0 20.24.1564992.3695049.5187198.609673.92.61z"/><path id="Shape" d="m56.31 17.78c-.2463727.1035151-.4410631.3013358-.5406358.5493281-.0995726.2479922-.0957425.5255219.0106358.7706719 1.4678376 3.4463376 2.2229961 7.1540981 2.22 10.9-.0012709 1.2909985-.088128 2.5804927-.26 3.86-.08394.5435979.2868937 1.0529357.83 1.14h.14c.501932.0049401.9297504-.3629837 1-.86.7351578-5.3611758.0167977-10.8214028-2.08-15.81-.0996632-.2499735-.2958706-.4492279-.5442786-.5527313-.2484081-.1035033-.5280484-.1025187-.7757214.0027313z"/><path id="Shape" d="m56.31 42.18c.1239863.050383.2561911.0775019.39.08.4012802-.000327.7635008-.2404951.92-.61.4665658-1.1053221.8672671-2.2373034 1.2-3.39.1204379-.3496889.038034-.7372986-.2142426-1.0077502-.2522767-.2704517-.6332269-.3795781-.9904364-.2837188-.3572094.0958593-.6323424.3810496-.715321.741469-.3105356 1.0745482-.6845255 2.129734-1.12 3.16-.2149432.5081056.0222174 1.0942949.53 1.31z"/><path id="Shape" d="m52.63 40.63c.1221817.0561093.2555956.0834762.39.08.4012802-.000327.7635008-.2404951.92-.61 2.7201772-6.4724808 2.7201772-13.7675192 0-20.24-.2157051-.5077826-.8018944-.7449432-1.31-.53-.5077826.2157051-.7449432.8018944-.53 1.31 2.5067745 5.974368 2.5067745 12.705632 0 18.68-.2149432.5081056.0222174 1.0942949.53 1.31z"/><path id="Shape" d="m23.86 51.13 3.46 7.21c.5074905 1.0182435 1.5472977 1.6618016 2.685 1.6618016s2.1775095-.6435581 2.685-1.6618016l3.45-7.19c10.5170722-3.0566773 17.1841103-13.3838619 15.6403594-24.226782-1.543751-10.8429201-10.8280956-18.89904106-21.7803594-18.89904106s-20.23660843 8.05612096-21.78035936 18.89904106c-1.54375092 10.8429201 5.12328716 21.1701047 15.64035936 24.226782zm6.14-41.13c10.0375538.0004222 18.5199573 7.4408397 19.8284849 17.3927361s-4.9622079 19.332134-14.6584849 21.9272639c-.2820545.0777129-.5159304.2750457-.64.54l-3.63 7.58c-.1691635.3394145-.5157659.5539339-.895.5539339s-.7258365-.2145194-.895-.5539339l-3.64-7.6c-.1240696-.2649543-.3579455-.4622871-.64-.54-9.6587895-2.6246131-15.8901301-11.9851704-14.5846674-21.9087069s9.7457005-17.3540159 19.7546674-17.3912931z"/><path id="Shape" d="m30 47c6.76 0 14-8.8 14-15v-13c.0015368-.265803-.1028135-.5212812-.29-.71-3.7331399-3.4391989-8.6342933-5.3303077-13.71-5.29-5.0757067-.0403077-9.9768601 1.8508011-13.71 5.29-.1871865.1887188-.2915368.444197-.29.71v13c0 6.2 7.24 15 14 15zm-12-27.58c6.9147072-5.8931629 17.0852928-5.8931629 24 0v12.58c0 5.71-6.73 13-12 13s-12-7.29-12-13z"/><path id="Shape" d="m26.69 26c.5246705.1739697 1.0910303-.1103295 1.265-.635s-.1103295-1.0910303-.635-1.265c-.15-.05-3.62-1.17-6 1.24-.1893127.1877666-.2957983.4433625-.2957983.71s.1064856.5222334.2957983.71c.1877666.1893127.4433625.2957983.71.2957983s.5222334-.1064856.71-.2957983c1.49-1.58 3.92-.82 3.95-.76z"/><path id="Shape" d="m33.31 26s2.46-.77 4 .76c.1877666.1893127.4433625.2957983.71.2957983s.5222334-.1064856.71-.2957983c.1893127-.1877666.2957983-.4433625.2957983-.71s-.1064856-.5222334-.2957983-.71c-2.41-2.41-5.88-1.29-6-1.24-.5246705.1739697-.8089697.7403295-.635 1.265s.7403295.8089697 1.265.635z"/><path id="Shape" d="m30 39c3.9896446.0077586 7.3877342-2.897608 8-6.84.0624318-.3931915-.1143146-.7859613-.45-1-.3314032-.2154186-.7585968-.2154186-1.09 0-1.9526899 1.1739035-4.1818263 1.8088278-6.46 1.84-2.2730236-.0355538-4.4969873-.6665388-6.45-1.83-.3314032-.2154186-.7585968-.2154186-1.09 0-.3356854.2140387-.5124318.6068085-.45 1 .6161206 3.9346677 4.0073876 6.8335855 7.99 6.83zm0-4c1.7867957-.0084072 3.5566031-.3474508 5.22-1-1.0197209 1.919254-3.048337 3.0851253-5.22 3-2.1633685.0725216-4.1798976-1.0908605-5.2-3 1.6581394.6466411 3.4202918.9855166 5.2 1z"/></g></g></g></svg>