<?xml version="1.0" encoding="utf-8"?>
<!-- Generator: Adobe Illustrator 21.0.0, SVG Export Plug-In . SVG Version: 6.00 Build 0)  -->
<svg version="1.1" id="Capa_1" xmlns="http://www.w3.org/2000/svg" xmlns:xlink="http://www.w3.org/1999/xlink" x="0px" y="0px"
	 viewBox="0 0 512 512" style="enable-background:new 0 0 512 512;" xml:space="preserve">
<style type="text/css">
	.st0{fill:#C7C8CC;}
</style>
<g>
	<g>
		<path class="st0" d="M502,98.4h-10v-10c0-5.5-4.5-10-10-10s-10,4.5-10,10v10H328H167.3c-4.7,0-8.9,3.5-9.8,8.1
			c-2,10.6-4.9,19.1-8.5,26c-11.6-19.5-23.3-31.3-35.7-36.1c-19.1-7.3-32.5,0.6-38.2,9.5c-6.9,10.8-5,24.9,4.6,34.2
			c7.5,7.3,11.5,19,12.3,26.4c-11.7,3.1-22.2,7.1-28.4,17.4c-5.1,8.4-6,19.3-2.9,34c-11.2,14.9-19.9,28.2-27.3,41.5
			c-2.7,4.8-1,10.9,3.9,13.6c4.8,2.7,10.9,1,13.6-3.9c7.5-13.5,16.6-27.1,28.5-42.7c0.7-0.9,1.3-2,1.7-3.2c0,0,0,0,0,0c0,0,0,0,0,0
			c0-0.1,0-0.1,0-0.2c0.9-3.1,2.8-4.9,5.7-5.5c4-0.9,8.8,0.7,11.5,3.8c2.6,2.9,3,6.8,1.3,11.7c-5.7,16.3-1.4,37.6,11.5,56.9
			c4.7,7,10.3,13.4,16.5,19c-7.1,12.1-10.4,30.4-6.5,66.1c1.4,12.9-0.5,22.6-5.5,28.1c-5.1,5.6-12.2,5.9-13.1,5.9
			c-0.3,0-0.4,0-0.8,0c-0.3,0-33.8,1.7-64.7,4.5c-8.3,0.7-11.2-2.1-12.2-3.1c-4.7-4.6-5-14-4.7-17.2c0-0.3,0-0.6,0-1
			c0-17.9,1.5-35,4.4-50.9c1-5.4-2.6-10.7-8-11.7c-5.4-1-10.7,2.6-11.7,8c-3.1,17-4.7,35.2-4.8,54.1c-0.3,3.8-0.9,21.2,10.4,32.6
			c4.3,4.3,11.8,9.2,23.9,9.2c1.4,0,2.8-0.1,4.3-0.2c28.9-2.6,60.2-4.2,63.6-4.4c0,0,0,0,0,0c3.3,0,17-0.7,27.6-12.1
			c9.3-10,13-24.9,10.9-44.1c-3.3-30.4-0.5-44.5,2.8-51.8c15.7,9.6,33.9,15.3,53.1,16.3c8.4,0.4,18.3-0.1,28.6-2
			c1.7-0.2,3.3-0.5,4.9-0.9c0.2-0.1,0.4-0.1,0.6-0.2c18.8-4.2,38.3-12.8,52.6-27.9c12.1-12.9,18.6-28.8,19.1-46.5h5
			c16.8,0,30.5-13.7,30.5-30.5v-53h37c5.5,0,10-4.5,10-10c0-5.5-4.5-10-10-10h-37v-37.9h154v37.9h-37c-5.5,0-10,4.5-10,10
			c0,5.5,4.5,10,10,10h47c5.5,0,10-4.5,10-10v-57.9C512,102.8,507.5,98.4,502,98.4z M187.7,239.8c-5.8,0-10.5-4.7-10.5-10.5V118.4
			h15.6l27,36.2c1.9,2.5,4.9,4,8,4h90v41h-90c-3.2,0-6.1,1.5-8,4l-27,36.2L187.7,239.8L187.7,239.8z M318,138.6h-85l-15.1-20.2H318
			V138.6z M91.9,116.6c2.2-3.5,7.6-4.1,14.2-1.6c5.3,2,15.9,9.2,29.5,34.4c-7.3,6.1-15.6,9.5-24.2,12c-2-12.7-8.7-26.9-17.8-35.8
			C90.4,122.7,90.4,118.9,91.9,116.6z M146.8,299c-7.5-5.6-14-12.5-19.2-20.2c-9.3-13.9-12.8-28.8-9.2-39.1
			c4.1-11.7,2.2-23.2-5.2-31.6c-7.6-8.5-19.6-12.5-30.8-10c-1.1,0.3-2.3,0.6-3.3,0.9c0.3-1.9,0.8-3.5,1.6-4.7
			c3.1-5.2,12.3-7.5,23-10.1c0,0,0,0,0.1,0c0.1,0,0.2,0,0.2-0.1c15-3.6,34.8-8.4,50.4-25.1c0.7-0.6,1.2-1.2,1.7-1.9
			c0.4-0.4,0.8-0.9,1.1-1.3v73.5c0,6.3,1.9,12.1,5.2,17c-10.3,18.7-9.2,40.4,3.4,59.3c1.4,2.1,3,4.2,4.6,6.1
			c-8.3-3-16-7.1-22.9-12.3C147.3,299.3,147.1,299.2,146.8,299z M268.9,292.6c-11.7,12.5-29.3,19.8-46.5,23
			c-13.8,1.7-30.4-6.9-39.9-21c-3.9-5.9-11.2-20.1-3.8-36.1c2.9,0.9,5.9,1.4,9,1.4h10.1c0,0,0,0,0,0c0,0,0,0,0,0h1.7
			c-0.4,12.6,3.6,25.2,11.8,36.6c2,2.7,5,4.2,8.1,4.2c2,0,4.1-0.6,5.8-1.9c4.5-3.2,5.5-9.5,2.3-14c-3.5-4.9-8.5-13.9-8-24.9h62.8
			C282.1,272.4,277.5,283.4,268.9,292.6z M307.5,239.8H292c0,0,0,0,0,0h-74.1l15.1-20.2h85v9.7C318,235.1,313.3,239.8,307.5,239.8z"
			/>
		<path class="st0" d="M415,156.3L415,156.3c-5.5,0-10,4.5-10,10c0,5.5,4.5,10,10,10s10-4.5,10-10C425,160.7,420.5,156.3,415,156.3z
			"/>
		<path class="st0" d="M21.9,310.2c1.1,0.4,2.2,0.6,3.4,0.6c4.1,0,8-2.6,9.4-6.6c1.9-5.2-0.9-10.9-6.1-12.8
			c-5.2-1.9-10.9,0.9-12.8,6.1l0,0C13.9,302.7,16.7,308.4,21.9,310.2z"/>
	</g>
</g>
</svg>
