<?xml version="1.0" encoding="utf-8"?>
<!-- Generator: Adobe Illustrator 21.0.0, SVG Export Plug-In . SVG Version: 6.00 Build 0)  -->
<svg version="1.1" id="Capa_1" xmlns="http://www.w3.org/2000/svg" xmlns:xlink="http://www.w3.org/1999/xlink" x="0px" y="0px"
	 viewBox="0 0 512 512" style="enable-background:new 0 0 512 512;" xml:space="preserve">
<style type="text/css">
	.st0{fill:#C7C8CC;}
</style>
<g>
	<g>
		<path class="st0" d="M376.4,209.3c-5.2-1.9-10.9,0.8-12.8,6c-1.9,5.2,0.8,10.9,6,12.8s10.9-0.8,12.8-6
			C384.2,216.9,381.5,211.2,376.4,209.3z"/>
	</g>
</g>
<g>
	<g>
		<path class="st0" d="M140.1,40c-5.5,0-10,4.5-10,10s4.5,10,10,10s10-4.5,10-10S145.6,40,140.1,40z"/>
	</g>
</g>
<g>
	<g>
		<path class="st0" d="M507.9,236.4c-66.5-50.3-145.1-81-227.9-89.3V29.5c0-4.4-2.9-8.3-7.1-9.6C229.9,6.7,185.1,0,140.1,0
			S50.3,6.7,7.1,20c-4.2,1.3-7.1,5.2-7.1,9.6v169c0,34.6,10.9,67.7,31.5,95.5c20.6,27.9,49,48,82.1,58.2c8.7,2.7,17.6,4,26.5,4
			s17.8-1.3,26.5-4c5.2-1.6,10.4-3.5,15.4-5.6c-6.7,56.2,16.7,112.3,62.7,147.1c18.3,13.8,37.3,18.3,58,18.3
			c65.7,0,127.2-40.6,150.9-105.8l43.2-118.6c0,0,0,0,0-0.1l14.4-39.7C512.8,243.7,511.4,239,507.9,236.4z M190.4,320.1
			c-9.3,5.5-19.3,9.8-29.7,13c-13.5,4.1-27.7,4.1-41.2,0c-29-8.9-53.8-26.5-71.9-50.9c-18-24.4-27.5-53.3-27.5-83.7V79.3
			c28.4-9.1,57.8-15,87.3-17.5c5.5-0.5,9.6-5.3,9.1-10.8c-0.5-5.5-5.3-9.6-10.8-9.1c-29,2.4-57.7,7.9-85.7,16.4V37
			c39-11.3,79.3-17,120-17s81,5.7,120,17v21.3c-27.8-8.4-56.3-13.9-85.1-16.4c-5.5-0.5-10.3,3.6-10.8,9.1
			c-0.5,5.5,3.6,10.3,9.1,10.8c29.4,2.5,58.5,8.4,86.8,17.4v119.3C260,248.4,233.3,295,190.4,320.1
			C190.4,320.1,190.4,320.1,190.4,320.1z M482.8,267.6c-23.2-17.4-48.2-32.4-74.4-44.5c-5-2.3-11-0.1-13.3,4.9
			c-2.3,5-0.1,11,4.9,13.3c26.8,12.4,52.2,27.9,75.6,46l-40.8,112.1c-21.3,58.5-77.3,95.6-139.4,92.5c-14.1-0.7-27.4-5.6-38.7-14.1
			c-44.1-33.4-64.4-89-52.5-142.7c26.1-16.3,46.7-39.6,59.7-66.6c3.1,1.1,6.7,0.7,9.5-1.5c5.5-4.3,12.6-5.4,19.1-3
			c7,2.5,11.9,8.7,13,16c0.8,5.5,5.8,9.3,11.3,8.5c5.5-0.8,9.3-5.8,8.5-11.3c-2.1-14.7-12-27-25.9-32.1c-8.6-3.1-17.8-3.2-26.3-0.4
			c3.6-12,5.9-24.6,6.6-37.3c19.8,2.3,39.4,6,58.4,11.2c0.9,0.2,1.8,0.4,2.6,0.4c4.4,0,8.4-2.9,9.6-7.4c1.4-5.3-1.7-10.8-7-12.3
			c-20.7-5.6-42-9.6-63.4-12v-20.1c76,7.9,148.2,35.7,209.9,80.7L482.8,267.6z"/>
	</g>
</g>
<g>
	<g>
		<path class="st0" d="M215.1,191.3c-3.1-1.8-6.9-1.8-10,0c-19.8,11.3-42.2,17.3-65,17.3s-45.3-6-65-17.3c-3.1-1.8-6.9-1.8-10,0
			c-3.1,1.8-5,5.1-5,8.6c0,44.1,35.9,80,80,80c44.1,0,80-35.7,80-80C220.1,196.4,218.2,193.1,215.1,191.3z M140.1,260
			c-27.1,0-50.1-18.1-57.5-42.8c18.2,7.5,37.7,11.4,57.5,11.4c19.8,0,39.3-3.9,57.5-11.4C190.3,241.5,167.6,260,140.1,260z"/>
	</g>
</g>
<g>
	<g>
		<path class="st0" d="M235.4,121.2c-6.9-13.1-20.5-21.2-35.3-21.2c-14.2,0-27.4,7.6-34.6,19.9c-2.8,4.8-1.2,10.9,3.6,13.7
			c4.8,2.8,10.9,1.2,13.7-3.6c3.6-6.1,10.2-10,17.3-10c7.5,0,14.3,4.2,17.7,10.6c2.6,4.9,8.7,6.7,13.5,4.1
			C236.1,132.2,238,126.1,235.4,121.2z"/>
	</g>
</g>
<g>
	<g>
		<path class="st0" d="M115.4,121.2c-6.9-13.1-20.5-21.2-35.3-21.2c-14.2,0-27.4,7.6-34.6,19.9c-2.8,4.8-1.2,10.9,3.6,13.7
			c4.8,2.8,10.9,1.2,13.7-3.6c3.6-6.1,10.2-10,17.3-10c7.5,0,14.3,4.2,17.7,10.6c2.6,4.9,8.7,6.7,13.5,4.1
			C116.2,132.2,118,126.1,115.4,121.2z"/>
	</g>
</g>
<g>
	<g>
		<path class="st0" d="M328.5,340.8C287,325.8,241,347.2,226,388.7c-1.2,3.3-0.6,7.1,1.7,9.8c2.3,2.7,5.9,4,9.4,3.4
			c44.9-7.7,91.6,8.3,122.2,44.5c2.3,2.7,5.9,4,9.4,3.4c3.5-0.6,6.4-3.1,7.6-6.4c3.2-8.8,4.8-18,4.8-27.4
			C381.1,382.5,360,352.3,328.5,340.8z M361,419.5c-30.2-27.6-69.2-40.9-108-39.3c15.4-20.7,43.2-29.8,68.6-20.5
			c23.6,8.6,39.5,31.2,39.5,56.4C361.1,417.2,361.1,418.3,361,419.5z"/>
	</g>
</g>
<g>
	<g>
		<path class="st0" d="M438.1,318.3c-2-14.4-11.8-26.9-25.9-32.1c-13.3-4.8-28.4-2.2-39.3,6.9c-4.2,3.5-4.8,9.8-1.3,14.1
			c3.5,4.2,9.8,4.8,14.1,1.3c5.5-4.5,13-5.9,19.7-3.4c7.2,2.6,12,8.9,13,16c0.8,5.5,5.8,9.3,11.3,8.5
			C435.1,328.8,438.9,323.7,438.1,318.3z"/>
	</g>
</g>
</svg>
