<?xml version="1.0" encoding="utf-8"?>
<!-- Generator: Adobe Illustrator 21.0.0, SVG Export Plug-In . SVG Version: 6.00 Build 0)  -->
<svg version="1.1" id="Capa_1" xmlns="http://www.w3.org/2000/svg" xmlns:xlink="http://www.w3.org/1999/xlink" x="0px" y="0px"
	 viewBox="0 0 512 512" style="enable-background:new 0 0 512 512;" xml:space="preserve">
<style type="text/css">
	.st0{fill:#C7C8CC;}
</style>
<g>
	<g>
		<path class="st0" d="M296,80.5c-5.5,0-10,4.5-10,10c0,6.4,5.8,11,12,9.8c4.6-0.9,8-5,8-9.8C306,84.9,301.5,80.5,296,80.5z"/>
	</g>
</g>
<g>
	<g>
		<path class="st0" d="M256,80.5c-19.1,0-18.2-0.9-37.1-2.7c-5.5-0.5-10.4,3.5-10.9,9c-0.5,5.5,3.5,10.4,9,10.9
			c18.4,1.8,18.6,2.8,39,2.8c5.5,0,10-4.5,10-10S261.5,80.5,256,80.5z"/>
	</g>
</g>
<g>
	<g>
		<path class="st0" d="M450.5,348.3l-35-11.7l13.6-13.6c2.1-2.1,3.2-5,2.9-8c-0.3-3-1.8-5.6-4.2-7.3L354,256.5l6-64.6
			c37.1-6.7,106-24.1,106-61.4c0-36.1-64.6-53.5-100.2-60.3c0.1-3.4,0.2-6.8,0.2-10.3c0-29.1-5-45.8-16.2-54.1
			c-13.5-10.1-31.3-4.8-50.1,0.8c-13.3,3.9-28.3,8.4-43.7,8.4s-30.4-4.4-43.7-8.4c-18.9-5.6-36.7-10.8-50.1-0.8
			C151,14.1,146,30.8,146,59.8c0,3.4,0.1,6.9,0.2,10.3C110.5,77,46,94.3,46,130.5c0,37.3,69,54.7,106,61.4l6,64.6l-73.7,51.3
			c-2.4,1.7-4,4.4-4.2,7.3c-0.3,2.9,0.8,5.9,2.9,8l13.6,13.6l-35,11.7C24.7,360.5,0,394.9,0,433.6V502c0,5.5,4.5,10,10,10
			c129.4,0,396.4,0,492,0c5.5,0,10-4.5,10-10v-68.3C512,394.9,487.3,360.5,450.5,348.3z M174.2,21.7c5.4-4.1,18.6-0.2,32.5,3.9
			c14.6,4.3,31.1,9.2,49.3,9.2s34.8-4.9,49.3-9.2c13.9-4.1,27.1-8,32.5-3.9c3,2.3,8.2,10.3,8.2,38.1c0,18.4-2.2,37.3-6.8,55.1
			c-26.1,3.7-54,5.5-83.2,5.5s-57.1-1.9-83.2-5.5C168.1,96.9,166,78,166,59.8C166,32,171.1,24,174.2,21.7z M66,130.5
			c0-12.3,28.1-29.6,81.9-40.3c1.5,12.6,4,24.8,7.5,36.5c1.1,3.7,4.2,6.5,8.1,7.1c28.9,4.4,60,6.7,92.6,6.7s63.8-2.3,92.6-6.7
			c3.8-0.6,7-3.3,8.1-7.1c3.4-11.7,5.9-24,7.5-36.5c53.8,10.7,81.9,28,81.9,40.3c0,13.6-33.3,32.7-96.9,43c-28.4,4.6-60.6,7-93.1,7
			s-64.7-2.4-93.1-7C99.3,163.2,66,144.1,66,130.5z M256,326c-22.9,0-44.7-10-59.6-27.4c-10.8-12.6-16.9-27.9-18.4-43.1l-5.6-60.4
			c26.1,3.5,54.8,5.4,83.6,5.4s57.4-1.9,83.6-5.4l-5.6,60.3c-1.5,15.3-7.6,30.5-18.4,43.1C300.7,316,278.9,326,256,326z M307,331.8
			l-7.1,29.4c-8.4,9.7-24.6,24.8-43.8,24.8s-35.4-15.1-43.8-24.8l-7.1-29.4c15.2,9.2,32.8,14.2,51,14.2S291.8,341,307,331.8z
			 M20,492v-58.3c0-30.2,19.2-56.9,47.9-66.4l44.4-14.8l22,22l-49.9,33.2c-2.2,1.5-3.8,3.8-4.3,6.5s0.1,5.4,1.6,7.6l49,70.3L20,492
			L20,492z M155.2,492L104,418.6l51.5-34.3c2.5-1.7,4.1-4.4,4.4-7.3c0.3-3-0.8-5.9-2.9-8.1l-51.5-51.5l56.8-39.6
			c3.6,11.2,9.2,21.6,16.5,30.9c0.7,2.9,44.4,183.2,44.4,183.3L155.2,492L155.2,492z M243.9,492l-23.6-97.3
			C231.9,402.1,244,406,256,406s24.1-3.9,35.7-11.3L268.1,492H243.9z M288.7,492l44.4-183.3c7.3-9.2,12.9-19.7,16.5-30.9l56.8,39.6
			l-51.5,51.5c-2.1,2.1-3.2,5.1-2.9,8.1c0.3,3,1.9,5.7,4.4,7.3l51.5,34.3L356.8,492L288.7,492L288.7,492z M492,492H381.2l49-70.3
			c1.5-2.2,2.1-4.9,1.6-7.6c-0.5-2.6-2-5-4.3-6.5l-49.9-33.2l22-22l44.4,14.8c28.6,9.5,47.9,36.2,47.9,66.4V492z"/>
	</g>
</g>
</svg>
