<?xml version="1.0" encoding="utf-8"?>
<!-- Generator: Adobe Illustrator 21.0.0, SVG Export Plug-In . SVG Version: 6.00 Build 0)  -->
<svg version="1.1" id="Layer_1" xmlns="http://www.w3.org/2000/svg" xmlns:xlink="http://www.w3.org/1999/xlink" x="0px" y="0px"
	 viewBox="0 0 512 512" style="enable-background:new 0 0 512 512;" xml:space="preserve">
<style type="text/css">
	.st0{fill:#C7C8CC;}
</style>
<g id="XMLID_1667_">
	<g id="XMLID_480_">
		<path id="XMLID_506_" class="st0" d="M502,20H10C4.5,20,0,24.5,0,30v452c0,5.5,4.5,10,10,10h201c5.5,0,10-4.5,10-10s-4.5-10-10-10
			h-87.3c-1.5-33.8-10.9-67-27.2-96.7c-15.3-27.8-36.7-52.1-62.2-71c71.4-22.6,121.3-88.9,121.6-165.6c30.9,17.7,65.4,26.5,100,26.5
			c34.6,0,69.1-8.8,100-26.5c0.3,76.7,50.2,143,121.6,165.6c-25.5,18.9-46.8,43.2-62.2,71c-16.4,29.7-25.7,62.9-27.2,96.7H301
			c-5.5,0-10,4.5-10,10s4.5,10,10,10h201c5.5,0,10-4.5,10-10V30C512,24.5,507.5,20,502,20L502,20z M492,271
			c-30.7-38.5-48-86.9-48-136.4V40h48V271z M156,40h200v11.6c-57.8,46.8-142.2,46.8-200,0V40z M68,40v94.5c0,49.5-17.3,98-48,136.4
			V40H68z M103.8,472H20V318.5C70.1,354.3,100.8,410.4,103.8,472z M136,137.9c0,65.2-40.4,122-99.4,144.4c13.5-17,24.5-35.7,33-55.9
			C81.8,197.2,88,166.3,88,134.5V40h48V137.9z M156,115.2V76.5c29.4,19.8,64.2,30.5,100,30.5s70.6-10.7,100-30.5v38.8
			C295.6,155.2,216.4,155.2,156,115.2z M376,137.9V40h48v94.5c0,31.7,6.2,62.7,18.5,91.9c8.5,20.2,19.5,38.9,33,55.9
			C416.4,259.9,376,203.1,376,137.9z M492,472h-83.8c3-61.6,33.6-117.7,83.8-153.5V472z"/>
		<path id="XMLID_1432_" class="st0" d="M304,373.9c7.1-5.2,10-13.9,7.2-22.3l-9.5-28.9l24.7-17.9c7.1-5.2,10-13.9,7.3-22.3
			c-2.7-8.4-10.1-13.8-19-13.8h-30.5l-9.3-28.9c-2.7-8.4-10.1-13.8-19-13.8s-16.2,5.4-19,13.8l-9.3,28.9h-30.5
			c-8.8,0-16.2,5.4-19,13.8c-2.7,8.4,0.1,17.1,7.3,22.3l24.7,17.9l-9.5,28.9c-2.7,8.4,0.1,17.1,7.2,22.3c7.1,5.2,16.3,5.2,23.5,0
			L256,356l24.5,17.9c3.6,2.6,7.7,3.9,11.7,3.9C296.4,377.8,300.4,376.5,304,373.9L304,373.9z M261.9,335.5
			c-1.8-1.3-3.8-1.9-5.9-1.9s-4.1,0.6-5.9,1.9l-30.2,22.1l11.6-35.6c1.4-4.1-0.1-8.7-3.6-11.2l-30.4-22H235c4.3,0,8.2-2.8,9.5-6.9
			l11.5-35.6l11.5,35.6c1.3,4.1,5.2,6.9,9.5,6.9h37.6l-30.4,22c-3.5,2.5-5,7.1-3.6,11.2l11.6,35.6L261.9,335.5z"/>
		<path id="XMLID_1434_" class="st0" d="M256,472c-2.6,0-5.2,1.1-7.1,2.9c-1.9,1.9-2.9,4.4-2.9,7.1s1.1,5.2,2.9,7.1
			c1.9,1.9,4.4,2.9,7.1,2.9s5.2-1.1,7.1-2.9c1.9-1.9,2.9-4.4,2.9-7.1s-1.1-5.2-2.9-7.1S258.6,472,256,472z"/>
	</g>
</g>
</svg>
