<?xml version="1.0" encoding="utf-8"?>
<!-- Generator: Adobe Illustrator 21.0.0, SVG Export Plug-In . SVG Version: 6.00 Build 0)  -->
<svg version="1.1" id="Capa_1" xmlns="http://www.w3.org/2000/svg" xmlns:xlink="http://www.w3.org/1999/xlink" x="0px" y="0px"
	 viewBox="0 0 512 512" style="enable-background:new 0 0 512 512;" xml:space="preserve">
<style type="text/css">
	.st0{fill:#C7C8CC;}
</style>
<g>
	<g>
		<path class="st0" d="M113.8,247c-2.6,0-5.2,1-7.2,3.1c-3.8,4-3.7,10.3,0.2,14.1c13.1,12.6,34.4,12.6,47.4,0
			c4-3.8,4.1-10.2,0.2-14.1s-10.2-4.1-14.1-0.2c-5.4,5.2-14.2,5.2-19.6,0C118.8,247.9,116.3,247,113.8,247L113.8,247z"/>
		<path class="st0" d="M511.7,301.4c1.3-5.1-1.6-10.3-6.6-11.9c-23.7-7.8-51.9-25.5-51.9-65.1v-21c0-32.3-7.4-57.7-22-75.2
			c-14.1-17-34.7-26-59.5-26c-23.7,0-43.9,9-58.4,25.9c-15.1,17.7-23.1,43.8-23.1,75.3v21c0,21.9-8.6,39.4-25.6,51.9
			c-4.1-0.8-8.2-1.2-12.5-1.2c-27.4,0-50.8,17.3-59.9,41.4c-2.7-0.8-16.7-4.5-20.8-5.7v-6.7c26.7-14.5,44.9-42.9,44.9-75.4V189
			c0-47.3-38.4-85.7-85.7-85.7c-47.3,0-85.7,38.5-85.7,85.7v39.7c0,32.5,18.2,60.8,44.9,75.3v6.7c-4.1,1.2-8.4,2.4-12.9,3.6
			C43,323.5,0.8,334.8,0,386.5v87.6c0,5.5,4.5,10,10,10h135.2v14.2c0,0,0,0,0,0.1c0,5.5,4.5,10,10,10h51.9c5.5,0,10-4.5,10-10
			s-4.5-10-10-10h-41.9v-6c0.1-7.3,1.1-13.3,2.8-18.3c6.3-18,22.6-22.8,44.7-29.4c1-0.3,2.1-0.6,3.1-0.9
			c5.3,14.4,19.1,24.7,35.3,24.7c17.6,0,31.7-10,37-24.7c1,0.3,2.1,0.6,3.1,0.9c28.3,8.4,47,13.9,47.6,47.7v6h-42
			c-5.5,0-10,4.5-10,10s4.5,10,10,10h52c5.5,0,10-4.5,10-10c0,0,0,0,0-0.1v-14.2h133.4c5.5,0,10-4.5,10-10v-87.5c0-0.1,0-0.1,0-0.2
			c-0.3-20.9-7.5-35.3-18.1-45.5C498.6,334.3,506.5,322.2,511.7,301.4L511.7,301.4z M371.7,122.2c18.9,0,33.7,6.3,44.1,18.8
			c10.4,12.5,16.2,30.8,17.2,54.5c-18.5,3.2-40.3,0.6-52.4-23.2c-3.6-7.2-14.2-7.2-17.8,0c-12,23.8-33.8,26.4-52.4,23.2
			C312.8,149.4,335.3,122.2,371.7,122.2L371.7,122.2z M310.2,215.6c4.3,0.6,8.4,0.9,12.4,0.9c20.2,0,37.1-7.4,49.1-21.7
			c12,14.2,28.9,21.7,49.1,21.7c4,0,8.2-0.3,12.4-0.9v8.8c0,33.9-27.6,61.5-61.5,61.5s-61.5-27.6-61.5-61.5L310.2,215.6L310.2,215.6
			z M392.6,303.2v14.9c0,11.5-9.3,20.8-20.8,20.8c-11.5,0-20.8-9.3-20.8-20.8v-14.9c6.6,1.8,13.6,2.7,20.8,2.7
			C378.9,305.9,385.9,305,392.6,303.2z M300.8,264.5c7.2,12.6,17.6,23.1,30.1,30.4v15.9c-4.2,1.2-8.5,2.4-12.9,3.6
			c-2.1,0.6-4.1,1.1-6.2,1.7c-5.1-13.1-14.3-24.1-26.1-31.4C291.9,278.6,296.9,271.9,300.8,264.5z M211.3,322.5
			c6.6-16.1,22.4-27.5,40.8-27.5c21.4,0,39.2,15.4,43.2,35.7c-13.3-6.4-28.2-9.8-43.2-9.8c-15,0-29.9,3.4-43.2,9.8
			C209.4,327.9,210.2,325.1,211.3,322.5L211.3,322.5z M64.8,189c0-36.3,29.5-65.7,65.7-65.7c36.2,0,65.7,29.5,65.7,65.7v10.3
			c-26.3,0.9-59.4-2.2-83.8-19c-4.4-3-10.4-2-13.6,2.2c-8.5,11.1-19.1,13.9-34,15.6L64.8,189L64.8,189z M64.8,228.8v-10.4
			c16.1-1.8,31.2-4.7,43.8-16.8c27.4,15.5,60.8,18.6,87.6,17.8v9.4c0,36.2-29.5,65.7-65.7,65.7C94.3,294.5,64.8,265,64.8,228.8
			L64.8,228.8z M151.4,311.9v6.1c0,0,0,0.1,0,0.1c0,11.5-9.3,20.8-20.8,20.8c-11.5,0-20.8-9.3-20.8-20.8c0,0,0,0,0-0.1v-6.2
			c6.7,1.7,13.7,2.6,20.8,2.6C137.8,314.5,144.7,313.6,151.4,311.9z M213.7,413.7c-2.2,0.7-4.4,1.3-6.5,2
			c-24.7,7.3-52.2,15.4-59.9,48.5H73.5v-40.5c0-5.5-4.5-10-10-10s-10,4.5-10,10v40.5H20v-77.4c0.6-34.1,23.9-42.8,62.1-53.1
			c3.2-0.9,6.5-1.8,9.7-2.7c5.4,16.2,20.7,28,38.8,28c18,0,33.3-11.7,38.7-28c3.3,0.9,15.9,4.4,18.8,5.2c-0.1,1-0.1,1.9-0.1,2.9
			v14.1c0,20.9,10.1,39.5,25.6,51.2L213.7,413.7z M270.4,421C270.4,421,270.4,421,270.4,421c0,12.1-9.9,17.6-19.2,17.6
			c-9.7,0-17.6-7.9-17.6-17.6c0,0,0,0,0,0v-6.5c2.4,0.7,4.9,1.3,7.5,1.8c3.6,0.6,7.2,0.9,10.9,0.9c3.1,0,6.1-0.2,9.1-0.6
			c3.2-0.4,6.3-1.1,9.3-2V421z M275.8,390.2c-13.4,9-33.6,9.4-47.1,0.2c-12.1-7.6-20.3-21-20.6-36.3c26.2-17.4,61.7-17.4,87.9,0
			C295.7,369.3,287.7,382.6,275.8,390.2z M482.3,464.1h-33.5v-40.5c0-5.5-4.5-10-10-10s-10,4.5-10,10v40.5h-72
			c-7.7-33.1-35.2-41.3-59.8-48.5c-2.2-0.6-4.4-1.3-6.5-2v-9.3c15.5-11.7,25.6-30.3,25.6-51.2v-14c0-1.2,0-2.4-0.1-3.6
			c2.4-0.7,4.8-1.3,7.2-2c3.2-0.9,6.5-1.8,9.8-2.7c5.4,16.2,20.7,28,38.7,28c18,0,33.4-11.7,38.8-28c3.3,0.9,6.5,1.8,9.7,2.7
			c38.2,10.3,61.5,19,62.1,53.1L482.3,464.1L482.3,464.1z M462.6,326.7c-11.9-5.6-25.1-9.1-37.2-12.4c-4.4-1.2-8.7-2.4-12.9-3.6
			v-15.9c12.5-7.3,22.9-17.7,30-30.3c11.4,21.5,31,33.8,47.3,40.5C485,319,478.3,324,462.6,326.7z"/>
		<path class="st0" d="M249.7,130.4c1.9,1.9,4.4,2.8,6.9,2.8c2.5,0,5-0.9,6.9-2.8l52.9-51.1c17.5-16.9,18-44.8,1.1-62.3
			c-8.1-8.4-19.1-13.2-30.9-13.4c-11.2-0.2-21.8,3.7-30.1,11.1c-8.3-7.4-18.9-11.3-30.1-11.1c-11.8,0.2-22.8,5-30.9,13.4
			c-16.8,17.5-16.3,45.4,1.1,62.3L249.7,130.4z M210.1,30.9c4.4-4.6,10.4-7.2,16.9-7.3c0.1,0,0.3,0,0.4,0c6.3,0,12.2,2.4,16.7,6.7
			l5.6,5.4c3.9,3.7,10,3.7,13.9,0l5.6-5.4c4.6-4.4,10.7-6.8,17.1-6.7c6.5,0.1,12.5,2.7,16.9,7.3c9.2,9.5,8.9,24.8-0.6,34l-46,44.4
			l-46-44.4C201.2,55.7,200.9,40.4,210.1,30.9L210.1,30.9z"/>
		<path class="st0" d="M252,488.4c-5.5,0-10,4.5-10,10s4.5,10,10,10h0.1c5.5,0,10-4.5,10-10S257.5,488.4,252,488.4L252,488.4z"/>
	</g>
</g>
</svg>
