<?xml version="1.0" encoding="iso-8859-1"?>
<!-- Generator: Adobe Illustrator 19.0.0, SVG Export Plug-In . SVG Version: 6.00 Build 0)  -->
<svg version="1.1" id="Capa_1" xmlns="http://www.w3.org/2000/svg" xmlns:xlink="http://www.w3.org/1999/xlink" x="0px" y="0px"
	 viewBox="0 0 496.485 496.485" style="enable-background:new 0 0 496.485 496.485;" xml:space="preserve">
<circle style="fill:#F16050;" cx="248.242" cy="248.242" r="248.242"/>
<rect x="110.933" y="218.764" style="fill:#E1E6E9;" width="274.618" height="269.964"/>
<path style="fill:#193651;" d="M385.552,496.485H110.933c-4.655,0-7.758-3.103-7.758-7.758V218.764c0-4.655,3.103-7.758,7.758-7.758
	h275.394c4.655,0,7.758,3.103,7.758,7.758v269.964C393.309,493.382,390.206,496.485,385.552,496.485z M118.691,480.97H378.57
	V226.521H118.691V480.97z"/>
<g>
	<rect x="140.49" y="248.351" style="fill:#FFFFFF;" width="215.661" height="211.006"/>
	<rect x="87.661" y="180.752" style="fill:#FFFFFF;" width="321.164" height="38.788"/>
</g>
<g>
	<path style="fill:#193651;" d="M408.824,226.521H87.661c-4.655,0-7.758-3.103-7.758-7.758v-38.788c0-4.655,3.103-7.758,7.758-7.758
		h321.164c4.655,0,7.758,3.103,7.758,7.758v38.788C416.582,223.418,413.479,226.521,408.824,226.521z M95.418,211.006h305.648
		v-23.273H95.418V211.006z"/>
	<path style="fill:#193651;" d="M401.067,496.485H95.418c-4.655,0-7.758-3.103-7.758-7.758s3.103-7.758,7.758-7.758h306.424
		c4.655,0,7.758,3.103,7.758,7.758S405.721,496.485,401.067,496.485z"/>
</g>
<polygon style="fill:#E1E6E9;" points="408.824,180.752 385.552,93.867 362.279,180.752 "/>
<g>
	<path style="fill:#193651;" d="M408.824,188.509h-46.545c-2.327,0-4.655-0.776-6.206-3.103s-2.327-4.655-1.552-6.982l23.273-86.109
		c0.776-3.103,3.879-5.43,7.758-5.43c3.879,0,6.206,2.327,7.758,5.43l23.273,86.109c0.776,2.327,0,4.655-1.552,6.982
		C413.479,187.733,411.152,188.509,408.824,188.509z M372.364,172.994h26.376l-13.188-48.873L372.364,172.994z"/>
	<path style="fill:#193651;" d="M385.552,101.624c-4.655,0-7.758-3.103-7.758-7.758V76.024c0-4.655,3.103-7.758,7.758-7.758
		c4.655,0,7.758,3.103,7.758,7.758v17.842C393.309,98.521,390.206,101.624,385.552,101.624z"/>
</g>
<polygon style="fill:#E1E6E9;" points="134.206,180.752 110.933,93.867 87.661,180.752 "/>
<g>
	<path style="fill:#193651;" d="M134.206,188.509H87.661c-2.327,0-4.655-0.776-6.206-3.103s-2.327-4.655-1.552-6.982l23.273-86.109
		c0.776-3.103,3.879-5.43,7.758-5.43c3.879,0,6.206,2.327,7.758,5.43l23.273,86.109c0.776,2.327,0,4.655-1.552,6.982
		C138.861,186.958,136.533,188.509,134.206,188.509z M97.745,172.994h26.376l-13.188-48.873L97.745,172.994z"/>
	<path style="fill:#193651;" d="M110.933,101.624c-4.655,0-7.758-3.103-7.758-7.758V76.024c0-4.655,3.103-7.758,7.758-7.758
		c4.655,0,7.758,3.103,7.758,7.758v17.842C118.691,98.521,114.812,101.624,110.933,101.624z"/>
</g>
<polygon style="fill:#FFFFFF;" points="302.545,31.806 302.545,69.042 263.758,69.042 263.758,31.806 232.727,31.806 
	232.727,69.042 193.939,69.042 193.939,31.806 162.909,31.806 162.909,180.752 333.576,180.752 333.576,31.806 "/>
<path style="fill:#193651;" d="M333.576,188.509H162.909c-4.655,0-7.758-3.103-7.758-7.758V31.806c0-4.655,3.103-7.758,7.758-7.758
	h31.03c4.655,0,7.758,3.103,7.758,7.758v29.479h23.273V31.806c0-4.655,3.103-7.758,7.758-7.758h31.03
	c4.655,0,7.758,3.103,7.758,7.758v29.479h23.273V31.806c0-4.655,3.103-7.758,7.758-7.758h31.03c4.655,0,7.758,3.103,7.758,7.758
	v148.945C341.333,184.63,338.23,188.509,333.576,188.509z M170.667,172.994h155.152V39.564h-15.515v29.479
	c0,4.655-3.103,7.758-7.758,7.758h-38.788c-4.655,0-7.758-3.103-7.758-7.758V39.564h-15.515v29.479c0,4.655-3.103,7.758-7.758,7.758
	h-38.788c-4.655,0-7.758-3.103-7.758-7.758V39.564h-15.515V172.994z"/>
<polyline style="fill:#FDBE5E;" points="162.909,106.279 162.909,180.752 333.576,180.752 333.576,106.279 "/>
<path style="fill:#193651;" d="M333.576,188.509H162.909c-4.655,0-7.758-3.103-7.758-7.758v-73.697c0-4.655,3.103-7.758,7.758-7.758
	c4.655,0,7.758,3.103,7.758,7.758v65.939h155.152v-65.939c0-4.655,3.103-7.758,7.758-7.758s7.758,3.103,7.758,7.758v73.697
	C341.333,184.63,338.23,188.509,333.576,188.509z"/>
<path style="fill:#FFFFFF;" d="M248.242,386.327c-27.927,13.964-44.994,32.582-44.994,63.612v38.788h89.988v-39.564
	C293.236,418.133,276.17,400.291,248.242,386.327z"/>
<path style="fill:#193651;" d="M293.236,496.485h-89.988c-4.655,0-7.758-3.103-7.758-7.758v-39.564
	c0-39.564,26.376-58.182,48.873-70.594c2.327-0.776,4.655-0.776,6.982,0c22.497,11.636,48.873,30.255,48.873,70.594v39.564
	C300.994,493.382,297.115,496.485,293.236,496.485z M211.006,480.97h74.473v-31.806c0-24.048-10.861-40.339-37.236-54.303
	c-25.6,13.964-37.236,31.03-37.236,54.303L211.006,480.97L211.006,480.97z"/>
<polygon style="fill:#FFFFFF;" points="229.624,336.679 229.624,290.133 210.23,269.964 191.612,290.133 191.612,336.679 "/>
<path style="fill:#193651;" d="M229.624,344.436h-38.012c-4.655,0-7.758-3.103-7.758-7.758v-46.545c0-2.327,0.776-3.879,2.327-5.43
	l18.618-19.394c3.103-3.103,8.533-3.103,10.861,0l18.618,19.394c1.552,1.552,2.327,3.103,2.327,5.43v46.545
	C237.382,340.558,233.503,344.436,229.624,344.436z M199.37,328.921h22.497v-35.685L211.006,281.6l-10.861,11.636v35.685H199.37z"/>
<polygon style="fill:#FFFFFF;" points="266.861,336.679 266.861,290.133 248.242,269.964 229.624,290.133 229.624,336.679 "/>
<path style="fill:#193651;" d="M266.861,344.436h-38.012c-4.655,0-7.758-3.103-7.758-7.758v-46.545c0-2.327,0.776-3.879,2.327-5.43
	l18.618-19.394c3.103-3.103,8.533-3.103,10.861,0l18.618,19.394c1.552,1.552,2.327,3.103,2.327,5.43v46.545
	C274.618,340.558,271.515,344.436,266.861,344.436z M237.382,328.921h22.497v-35.685L248.242,281.6l-10.861,11.636V328.921z"/>
<polygon style="fill:#FFFFFF;" points="304.873,336.679 304.873,290.133 286.255,269.964 266.861,290.133 266.861,336.679 "/>
<g>
	<path style="fill:#193651;" d="M304.873,344.436h-38.012c-4.655,0-7.758-3.103-7.758-7.758v-46.545c0-2.327,0.776-3.879,2.327-5.43
		l18.618-19.394c3.103-3.103,8.533-3.103,10.861,0l18.618,19.394c1.552,1.552,2.327,3.103,2.327,5.43v46.545
		C312.63,340.558,309.527,344.436,304.873,344.436z M274.618,328.921h22.497v-35.685L286.255,281.6l-10.861,11.636v35.685H274.618z"
		/>
	<rect x="196.267" y="128.776" style="fill:#193651;" width="15.515" height="14.739"/>
	<rect x="240.485" y="128.776" style="fill:#193651;" width="15.515" height="14.739"/>
	<rect x="284.703" y="128.776" style="fill:#193651;" width="15.515" height="14.739"/>
</g>
<g>
</g>
<g>
</g>
<g>
</g>
<g>
</g>
<g>
</g>
<g>
</g>
<g>
</g>
<g>
</g>
<g>
</g>
<g>
</g>
<g>
</g>
<g>
</g>
<g>
</g>
<g>
</g>
<g>
</g>
</svg>
