<?xml version="1.0" encoding="utf-8"?>
<!-- Generator: Adobe Illustrator 21.0.0, SVG Export Plug-In . SVG Version: 6.00 Build 0)  -->
<svg version="1.1" id="Calque_1" xmlns="http://www.w3.org/2000/svg" xmlns:xlink="http://www.w3.org/1999/xlink" x="0px" y="0px"
	 viewBox="0 0 512 512" style="enable-background:new 0 0 512 512;" xml:space="preserve">
<style type="text/css">
	.st0{fill:#C7C8CC;}
</style>
<path class="st0" d="M331.1,442.7c6.5-7,9.2-15.6,9.2-25.1c0-9.5-2.7-18.1-9.2-25.1c-6.3-6.8-14.4-10-23.6-10
	c-9.3,0-17.4,3.1-23.8,9.9c-6.5,7-9.2,15.6-9.2,25.1c0,9.6,2.7,18.3,9.3,25.3c6.4,6.8,14.4,10,23.7,10
	C316.7,452.7,324.7,449.5,331.1,442.7z M297,431.4c-3.1-3.9-4-8.9-4-13.8c0-4.9,1-9.7,4.1-13.5c2.7-3.3,6-4.9,10.3-4.9
	c4.3,0,7.7,1.6,10.3,4.9c3.1,3.9,4.1,8.8,4.1,13.7s-1,9.7-4.1,13.6c-2.7,3.4-6.1,5-10.3,5C303.1,436.3,299.7,434.7,297,431.4z"/>
<path class="st0" d="M264.5,383.6h-33.3c-2.3,0-4.3,0.9-5.8,2.5c-1.5,1.6-2.4,3.6-2.4,5.8c0,2.3,0.8,4.4,2.5,6
	c1.6,1.5,3.4,2.4,5.6,2.4h7.8v42.9c0,2.5,0.9,4.6,2.6,6.3l0,0.1l0.1,0c1.8,1.6,4,2.6,6.4,2.6c2.4,0,4.5-1,6.2-2.7
	c1.7-1.8,2.6-3.9,2.6-6.3v-42.8h7.7c2.2,0,4.2-0.8,5.8-2.4c1.6-1.6,2.4-3.6,2.4-5.9c0-2.3-0.8-4.3-2.4-6
	C268.8,384.5,266.8,383.6,264.5,383.6z"/>
<path class="st0" d="M200.1,433.7c-1.4,1.1-3.2,1.5-5,1.5c-2.8,0-6.1-1-8.7-2c-1.8-0.6-5-1.8-6.9-1.8c-2.3,0-4.3,0.8-5.8,2.5
	c-1.6,1.7-2.2,3.8-2.2,6.1v0.5c0,4.4,3.4,7.1,7,8.8c4.9,2.3,10.5,3,15.8,3c6.9,0,13.6-1.7,18.9-6.4c5-4.4,7.3-10.1,7.3-16.7
	c0-7-2.7-12.7-8.7-16.4c-3.7-2.4-8.8-4-13-5.2c-1.7-0.5-3.4-1-5-1.6c-0.6-0.2-1.6-0.6-2.2-1c-0.5-0.5-1.2-1.1-1.2-1.8
	c0-1.1,0.5-1.8,1.4-2.4c1.2-0.9,2.6-1.2,4-1.2c1.4,0,3.2,0.5,4.5,0.8l2.5,0.9c1.6,0.5,3.6,1.2,5.3,1.2c2.3,0,4.3-0.9,5.8-2.6
	c1.5-1.7,2.3-3.7,2.3-6c0-3.9-2.7-6.6-6-8.4c-4.1-2.2-8.7-2.9-13.3-2.9c-6.7,0-12.9,1.8-18,6.1c-4.8,4.2-7.3,9.5-7.3,15.9
	c0,6.1,2.2,11.2,7.4,14.5c1.5,1,3.4,1.8,5.1,2.5c2.5,1,5.1,1.8,7.7,2.5c2.4,0.7,5.2,1.5,7.5,2.6c0.6,0.3,1.5,0.8,1.8,1.4
	c0.3,0.6,0.5,1.4,0.5,2.1C201.9,431.7,201.3,432.8,200.1,433.7z"/>
<path class="st0" d="M427.5,449.6c1.8,1.7,3.9,2.7,6.3,2.7c2.5,0,4.7-1,6.4-2.8c1.7-1.8,2.6-3.9,2.6-6.4v-22.9l16.6-22.8
	c1.2-1.6,1.8-3.5,1.8-5.4c0-2.5-1-4.6-2.8-6.3c-1.7-1.7-3.9-2.6-6.3-2.6c-3.1,0-5.6,1.4-7.3,3.9l-11,15.8l-10.9-15.8
	c-1.7-2.6-4.2-3.9-7.3-3.9c-2.5,0-4.8,0.9-6.6,2.7c-1.7,1.7-2.7,3.8-2.7,6.3c0,2,0.8,3.9,2,5.4l16.5,22.8v22.9
	C424.7,445.6,425.6,447.9,427.5,449.6z"/>
<path class="st0" d="M400.5,405.5c0-6.2-2.2-11.6-6.9-15.7c-4.8-4.2-10.6-6-17-6h-16.4c-2.5,0-4.7,0.9-6.5,2.7
	c-1.8,1.8-2.7,4.1-2.7,6.6v50.1c0,2.5,0.9,4.7,2.7,6.5l0,0.1l0,0c1.8,1.6,4,2.6,6.4,2.6c2.4,0,4.6-0.8,6.3-2.6
	c1.7-1.8,2.6-3.9,2.6-6.4v-14.5l16,19.7c1.8,2.2,4.1,3.7,7.1,3.7c2.4,0,4.6-0.9,6.4-2.5l0.1,0l0-0.1c1.6-1.8,2.6-3.9,2.6-6.4
	c0-2.2-0.8-4.2-2.3-5.9l-12.1-13.3c2-0.6,4.1-1.3,5.7-2.4C398.2,417.9,400.5,412.1,400.5,405.5z M380.9,409.8
	c-1.2,1.1-2.5,1.7-4.1,1.7h-7.6v-10.9h7.4c1.6,0,3.1,0.4,4.2,1.6l0,0l0.1,0c1.1,1,1.7,2.2,1.7,3.7
	C382.6,407.4,382,408.7,380.9,409.8z"/>
<path class="st0" d="M114.8,449.7c1.7,1.8,3.9,2.6,6.3,2.6c2.5,0,4.6-0.9,6.4-2.7c1.7-1.8,2.6-3.9,2.6-6.3v-51.2
	c0-2.5-0.9-4.7-2.6-6.5c-1.7-1.7-3.9-2.7-6.3-2.7s-4.6,1-6.3,2.8c-1.7,1.8-2.7,3.9-2.7,6.4v16.4H88.7v-16.4c0-2.5-0.9-4.7-2.6-6.5
	c-1.7-1.8-3.8-2.7-6.3-2.7c-2.5,0-4.6,1-6.4,2.8c-1.7,1.8-2.7,3.9-2.7,6.4v51.2c0,2.5,0.9,4.7,2.7,6.4c1.8,1.7,3.9,2.6,6.4,2.6
	c2.5,0,4.6-0.9,6.3-2.6c1.7-1.8,2.6-3.9,2.6-6.4v-18.1h23.5v18.1C112.2,445.8,113.1,448,114.8,449.7z"/>
<path class="st0" d="M145.4,385.7c-1.7,1.8-2.7,3.9-2.7,6.4v51.1c0,2.5,0.9,4.6,2.6,6.4c1.7,1.8,3.9,2.6,6.3,2.6
	c2.5,0,4.6-0.9,6.3-2.6c1.7-1.7,2.6-3.9,2.6-6.3v-51.2c0-2.5-0.9-4.7-2.6-6.5c-1.7-1.8-3.8-2.7-6.3-2.7
	C149.3,382.9,147.2,383.9,145.4,385.7z"/>
<path class="st0" d="M501.9,159.7H126.6l368.5-71.2c2.6-0.5,4.9-2,6.4-4.3c1.5-2.2,2.1-4.9,1.5-7.6l-11.1-57.5
	c-1.1-5.5-6.4-9-11.8-8L374.5,31.6c-0.2,0-0.4,0.1-0.7,0.1L54.7,93.4c0,0-0.1,0-0.1,0l-46.4,9c-2.6,0.5-4.9,2-6.4,4.3
	c-1.5,2.2-2.1,4.9-1.5,7.6l11,56.6v320.1c0,5.6,4.5,10.1,10.1,10.1h192.5c5.6,0,10.1-4.5,10.1-10.1c0-5.6-4.5-10.1-10.1-10.1H31.3
	V238.5h44.8c0,0,0,0,0,0c0,0,0,0,0,0h81.3c0,0,0,0,0,0c0,0,0,0,0,0h81.3c0,0,0,0,0,0s0,0,0,0h81.3c0,0,0,0,0,0s0,0,0,0h81.3
	c0,0,0,0,0,0s0,0,0,0h90.4v242.4H304.6c-5.6,0-10.1,4.5-10.1,10.1c0,5.6,4.5,10.1,10.1,10.1h197.4c5.6,0,10.1-4.5,10.1-10.1V169.8
	C512,164.2,507.5,159.7,501.9,159.7z M340.3,218.3l28.8-38.4h56.1l-28.8,38.4H340.3z M259,218.3l28.8-38.4h56.1l-28.8,38.4H259z
	 M177.6,218.3l28.8-38.4h56.1l-28.8,38.4H177.6z M96.3,218.3l28.8-38.4h56.1l-28.8,38.4H96.3z M31.3,169.8c0-5.7,4.6-10.3,10.3-10.3
	c5.7,0,10.3,4.6,10.3,10.3s-4.6,10.3-10.3,10.3C35.9,180.1,31.3,175.5,31.3,169.8z M134.1,98.6l40.3,31.3l-53.5,10.4L80.5,109
	L134.1,98.6z M213.9,83.2l40.3,31.3l-53.5,10.3l-40.3-31.3L213.9,83.2z M293.8,67.8l40.3,31.3l-53.5,10.3l-40.3-31.3L293.8,67.8z
	 M373.6,52.3l40.3,31.3L360.4,94l-40.3-31.3L373.6,52.3z M481.3,70.6l-41.1,7.9l-40.3-31.3L474,32.9L481.3,70.6z M54.2,114.1
	l40.3,31.3l-29,5.6c-5.6-7.1-14.2-11.6-23.9-11.6c-5.6,0-10.8,1.5-15.2,4.1l-4.5-23.1L54.2,114.1z M31.3,198.5
	c3.2,1.2,6.7,1.8,10.3,1.8c13.3,0,24.6-8.5,28.8-20.4h29.5l-28.8,38.4H31.3V198.5z M421.6,218.3l28.8-38.4h41.4v38.4H421.6z"/>
<path class="st0" d="M451.1,345.9c5.6,0,10.1-4.5,10.1-10.1v-41.3c0-5.6-4.5-10.1-10.1-10.1H66.3c-5.6,0-10.1,4.5-10.1,10.1v41.3
	c0,5.6,4.5,10.1,10.1,10.1H451.1z M441.1,325.7H328.9v-21.1h112.2V325.7z M308.7,325.7H192.1v-21.1h116.6V325.7z M76.4,304.6h95.5
	v21.1H76.4V304.6z"/>
<path class="st0" d="M259.5,480.8h-0.2c-5.6,0-10.1,4.5-10.1,10.1s4.5,10.1,10.1,10.1h0.2c5.6,0,10.1-4.5,10.1-10.1
	S265.1,480.8,259.5,480.8z"/>
</svg>
