<?xml version="1.0" encoding="utf-8"?>
<!-- Generator: Adobe Illustrator 21.0.0, SVG Export Plug-In . SVG Version: 6.00 Build 0)  -->
<svg version="1.1" id="Capa_1" xmlns="http://www.w3.org/2000/svg" xmlns:xlink="http://www.w3.org/1999/xlink" x="0px" y="0px"
	 viewBox="0 0 512 512" style="enable-background:new 0 0 512 512;" xml:space="preserve">
<style type="text/css">
	.st0{fill:#C7C8CC;}
</style>
<g>
	<path class="st0" d="M186.5,223.6c-10.1-2.7-16.1,1.4-18.8,4.1c-15.6,15.6-15.6,40.9,0,56.6c15.6,15.6,40.9,15.6,56.6,0
		c2.7-2.7,6.8-8.7,4.1-18.8C224,249.5,202.5,227.9,186.5,223.6L186.5,223.6z M181.8,270.1c-7.5-7.5-7.8-19.5-0.9-27.3
		c2.7,0.6,9.3,4,16.8,11.4c7.5,7.5,10.9,14,11.4,16.8C201.4,277.8,189.5,277.8,181.8,270.1z"/>
	<path class="st0" d="M325.5,223.6c-16,4.3-37.6,25.8-41.9,41.9c-2.7,10.1,1.4,16.1,4.1,18.8c15.6,15.6,40.9,15.6,56.6,0
		c15.6-15.6,15.6-40.9,0-56.6C341.6,225,335.6,220.9,325.5,223.6z M330.1,270.1c-7.5,7.5-19.5,7.8-27.3,0.9c0.6-2.7,4-9.3,11.4-16.8
		s14-10.9,16.8-11.4C337.9,250.7,337.6,262.6,330.1,270.1z"/>
	<path class="st0" d="M264.9,311.5c-3.7-7.4-14.2-7.4-17.9,0l-15,30c-2.5,4.9-0.5,10.9,4.5,13.4c4.9,2.5,10.9,0.5,13.4-4.5l6.1-12.1
		l6.1,12.1c2.5,4.9,8.5,6.9,13.4,4.5c4.9-2.5,6.9-8.5,4.5-13.4L264.9,311.5z"/>
	<path class="st0" d="M301,492c-5.5,0-10,4.5-10,10s4.5,10,10,10h122.9c3.3,0,6.3-1.6,8.2-4.3c36.9-53,59-124.4,59-191
		c0-119.4-57.3-197.9-105.3-242.7C333.1,24.7,274.2,0,256,0c-18.2,0-77,24.7-129.8,73.8c-48,44.8-105.3,123.3-105.3,242.5
		c0,66.8,22,138.3,59,191.3c1.9,2.7,4.9,4.3,8.2,4.3H211c5.5,0,10-4.5,10-10s-4.5-10-10-10h-40.8c-51.9-53.8-77.3-134.1-66.3-210.6
		l0.6-4.1c10.7,31.3,31.1,58.8,59,78.6c6.2,4.4,9.1,12.7,7.1,20.5l-5,19.9c-6.3,25.3,12.8,49.7,38.8,49.7h103.2
		c26,0,45.1-24.5,38.8-49.7l-5-19.9c-2-7.8,0.9-16.1,7.1-20.5c27.9-19.8,48.3-47.3,59-78.6l0.6,4.1c10.9,76.5-14.5,156.8-66.3,210.6
		H301z M337,339.6c-12.9,9.2-18.9,25.9-15,41.6l5,19.9c3.2,12.7-6.4,24.9-19.4,24.9H296v-20c0-5.5-4.5-10-10-10s-10,4.5-10,10v20
		h-40v-20c0-5.5-4.5-10-10-10s-10,4.5-10,10v20h-11.6c-13,0-22.5-12.2-19.4-24.9l5-19.9c3.9-15.8-2.1-32.5-15-41.6
		c-33.6-23.9-54.8-60.5-58.4-100.8c16.2-30.6,45.8-51.9,79.8-57.1c39.6-6.1,79.7-6.1,119.3,0c33.9,5.2,63.6,26.5,79.8,57.1
		C391.7,279.1,370.5,315.7,337,339.6L337,339.6z M427.9,278.6l-0.9-6.5c-8.1-57-52.5-101.7-108.3-110.2c-41.6-6.4-83.8-6.4-125.4,0
		C137.3,170.5,93.1,215.4,85,272.1l-0.9,6.5C73.2,354.7,95.8,434.4,143.4,492h-50c-32.9-49.4-52.5-114.6-52.5-175.6
		c0-112.1,53.8-185.8,99-227.9C191.2,40.6,245.7,20,256,20c8.7,0,61.9,17.9,116.2,68.6c45.1,42.2,98.9,116,98.9,228.1
		c0,60.9-19.5,126-52.5,175.3h-50C416.2,434.4,438.8,354.7,427.9,278.6L427.9,278.6z"/>
	<circle class="st0" cx="256" cy="502" r="10"/>
</g>
</svg>
