<?xml version="1.0" encoding="utf-8"?>
<!-- Generator: Adobe Illustrator 21.0.0, SVG Export Plug-In . SVG Version: 6.00 Build 0)  -->
<svg version="1.1" id="Capa_1" xmlns="http://www.w3.org/2000/svg" xmlns:xlink="http://www.w3.org/1999/xlink" x="0px" y="0px"
	 viewBox="0 0 512 512" style="enable-background:new 0 0 512 512;" xml:space="preserve">
<style type="text/css">
	.st0{fill:#C7C8CC;}
</style>
<g id="XMLID_2368_">
	<g id="XMLID_192_">
		<path id="XMLID_201_" class="st0" d="M487,222.2c-19.1-19.1-45-27.2-69.9-24.4c8.8-39.1-2.8-80.5-31.7-109.3
			c-46-46-120.9-46-166.9,0l-8.6,8.6l-8.6-8.6c-46-46-120.9-46-166.9,0c-46,46-46,120.9,0,166.9l45.9,45.9c2,2,4.5,2.9,7.1,2.9
			s5.1-1,7.1-2.9c3.9-3.9,3.9-10.2,0-14.1l-45.9-45.9c-38.2-38.2-38.2-100.4,0-138.6c38.2-38.2,100.4-38.2,138.6,0l15.7,15.7
			c1.9,1.9,4.4,2.9,7.1,2.9c2.7,0,5.2-1.1,7.1-2.9l15.7-15.7c38.2-38.2,100.4-38.2,138.6,0c26.4,26.4,35.4,65.6,23.5,100.8
			c-10.4,4.2-20.1,10.4-28.5,18.8l-3.9,3.9l-3.9-3.9c-33.3-33.3-87.4-33.3-120.7,0c-16.1,16.1-25,37.5-25,60.3
			c0,22.8,8.9,44.2,25,60.3l15.8,15.8l-38,38c-3.2,3.2-8.5,3.2-11.7,0l-45.9-45.9c-3.9-3.9-10.2-3.9-14.1,0
			c-3.9,3.9-3.9,10.2,0,14.1l45.9,45.9c5.5,5.5,12.7,8.3,20,8.3s14.5-2.8,20-8.3l38-38l78.5,78.5c4.4,4.4,10.3,6.6,16.1,6.6
			c5.8,0,11.6-2.2,16.1-6.6L487,342.9c16.1-16.1,25-37.5,25-60.3C512,259.8,503.1,238.3,487,222.2L487,222.2z M472.9,328.8
			L364.4,437.2c-1.1,1.1-2.8,1.1-3.9,0L252.1,328.8C239.8,316.4,233,300,233,282.6c0-17.4,6.8-33.9,19.1-46.2
			c12.3-12.3,28.7-19.1,46.2-19.1c17.4,0,33.9,6.8,46.2,19.1l10.9,10.9c3.9,3.9,10.2,3.9,14.1,0l10.9-10.9
			c12.3-12.3,28.7-19.1,46.2-19.1c17.4,0,33.9,6.8,46.2,19.1c12.3,12.3,19.1,28.7,19.1,46.2C492,300,485.2,316.4,472.9,328.8
			L472.9,328.8z"/>
		<path id="XMLID_202_" class="st0" d="M119.3,316c-2.6,0-5.2,1.1-7.1,2.9c-1.9,1.9-2.9,4.4-2.9,7.1c0,2.6,1.1,5.2,2.9,7.1
			c1.9,1.9,4.5,2.9,7.1,2.9c2.6,0,5.2-1.1,7.1-2.9c1.9-1.9,2.9-4.4,2.9-7.1c0-2.6-1.1-5.2-2.9-7.1C124.5,317.1,121.9,316,119.3,316z
			"/>
	</g>
</g>
</svg>
