<svg id="Capa_1" enable-background="new 0 0 512.002 512.002" height="512" viewBox="0 0 512.002 512.002" width="512" xmlns="http://www.w3.org/2000/svg"><g><g><g clip-rule="evenodd" fill-rule="evenodd"><path d="m7.5 120v264.502h45.001v-279.502h-30c-8.285 0-15.001 6.72-15.001 15z" fill="#e4ebf3"/><path d="m459.501 105v279.502h45.001v-264.502c0-8.281-6.716-15-15.004-15z" fill="#e4ebf3"/><path d="m7.5 384.502v22.5c0 8.28 6.716 15 15 15h466.998c8.288 0 15.004-6.721 15.004-15v-22.5c-165.668 0-331.334 0-497.002 0z" fill="#9c9da0"/><path d="m203.5 467.001h-52.499c-8.284 0-15 6.72-15 15v22.5h239.997v-22.5c0-8.28-6.713-15-14.999-15h-52.499l-15-44.999h-75z" fill="#9c9da0"/><path d="m7.5 384.502v22.5c0 8.28 6.716 15 15 15h22.5c-8.284 0-15-6.721-15-15v-22.5z" fill="#838288"/><path d="m241.001 422.002h-22.501l-15 44.999h22.5zm-67.5 44.999h-22.5c-8.284 0-15 6.72-15 15v22.5h22.5v-22.5c-.001-8.279 6.715-15 15-15z" fill="#838288"/><path d="m7.5 120v264.502h22.5v-264.502c0-8.281 6.716-15 15-15h-22.5c-8.284 0-15 6.72-15 15z" fill="#c6daec"/><path d="m459.501 105.001h22.5v279.501h-22.5z" fill="#c6daec"/><path d="m256 128.519-42.38-42.379c-32.008-31.998 9.101-70.89 42.38-33.017 33.279-37.873 74.39 1.019 42.382 33.017zm-203.499 255.983h30.737v-55.451c0-19.23 17.67-26.54 34.951-34.95l34.451-16.789c-16.17-7.541-27.446-23.97-27.446-42.909v-77.07h87.114c12.374 0 22.501 10.13 22.501 22.5v22.499h-15v32.071c0 18.939-11.277 35.369-27.449 42.909l34.453 16.789c17.282 8.41 34.951 15.731 34.951 34.95v11.04c0-17.98 16.53-24.82 32.694-32.699l-23.447-25.79v-60.041c0-40.839 33.413-74.259 74.252-74.259 40.838 0 74.253 33.42 74.253 74.259v60.041l-23.447 25.79c16.164 7.879 32.693 14.719 32.693 32.699v44.411h30.738v-377.001h-407v377.001z" fill="#e4ebf3"/><path d="m256 53.123c-33.279-37.873-74.387 1.019-42.38 33.017l42.38 42.379 42.382-42.379c32.008-31.998-9.103-70.89-42.382-33.017z" fill="#f0647e"/><path d="m125.195 179.832v54.571c0 26.159 21.425 47.309 47.307 47.309 25.883 0 47.308-21.15 47.308-47.309v-32.071h-72.114c-12.376-.001-22.501-10.121-22.501-22.5z" fill="#fedbaf"/><path d="m125.195 157.332v22.5c0 12.38 10.126 22.499 22.501 22.499h87.114v-22.499c0-12.37-10.127-22.5-22.501-22.5z" fill="#9c9da0"/><path d="m345.265 147.302c-40.839 0-74.252 33.42-74.252 74.259v60.041l23.447 25.79 32.232-15.69c-15.126-7.061-25.679-22.431-25.679-40.141v-30l36.924-14.999 51.581 30v15c0 17.71-10.549 33.08-25.68 40.131l32.234 15.7 23.447-25.79v-60.041c-.001-40.84-33.416-74.26-74.254-74.26z" fill="#fdc682"/><path d="m301.012 221.561v30c0 24.71 20.305 44.25 44.253 44.25 24.212 0 44.252-19.79 44.252-44.25v-15l-51.581-30z" fill="#fedbaf"/><path d="m326.691 291.702 5.27 37.139h26.609l5.271-37.15c-11.709 5.471-25.439 5.471-37.15.011z" fill="#fedbaf"/><path d="m294.459 307.392c-16.165 7.879-32.694 14.719-32.694 32.699v44.411h166.998v-44.411c0-17.98-16.529-24.82-32.693-32.699l-32.23-15.7-5.271 37.15h-26.609l-5.27-37.139c-.01-.011-29.507 14.368-32.231 15.689z" fill="#f7bad5"/><path d="m118.189 294.101c-17.281 8.41-34.951 15.72-34.951 34.95v55.451h178.527v-55.451c0-19.218-17.669-26.54-34.951-34.95l-34.453-16.789c-12.518 5.84-27.199 5.84-39.72 0z" fill="#a0b9e0"/><path d="m52.501 7.501h22.498v377.001h-22.498z" fill="#c6daec"/><path d="m238.317 39.883c-27.703-11.283-51.127 19.827-24.697 46.258l42.38 42.378 11.251-11.247-31.131-31.132c-18.521-18.518-12.561-39.339 2.197-46.257z" fill="#e33f59"/><path d="m118.189 294.101c-17.281 8.41-34.951 15.72-34.951 34.95v55.451h22.5v-55.451c0-19.23 17.67-26.54 34.951-34.95l26.158-12.749c-4.882-.58-9.684-1.931-14.206-4.04z" fill="#7394c9"/><path d="m125.195 179.832v54.571c0 30.72 29.059 53.22 58.557 45.939-20.558-5.069-36.058-23.689-36.058-45.939v-32.071c-12.375-.001-22.499-10.121-22.499-22.5z" fill="#fab888"/><path d="m125.195 157.332v22.5c0 12.38 10.126 22.499 22.501 22.499h22.498c-12.375 0-22.498-10.12-22.498-22.499v-22.5z" fill="#838288"/><path d="m271.013 221.561v60.041l23.447 25.79 15.596-7.591-16.543-18.199v-60.041c0-37.02 27.45-67.939 63.001-73.399-44.655-6.86-85.501 27.94-85.501 73.399z" fill="#fbb057"/><path d="m301.012 221.561v30c0 24.71 20.305 44.25 44.253 44.25 3.885 0 7.661-.51 11.265-1.471-18.734-4.969-33.016-22.059-33.016-42.78v-39.15z" fill="#fab888"/><path d="m326.691 291.702 5.27 37.139h15l-4.704-33.15c-5.344-.36-10.635-1.689-15.566-3.989z" fill="#fab888"/><path d="m294.459 307.392c-16.165 7.879-32.694 14.719-32.694 32.699v44.411h22.501v-44.411c0-17.98 16.527-24.82 32.693-32.699l11.186-5.45-1.454-10.24c-.011-.01-29.508 14.369-32.232 15.69z" fill="#f49cc2"/></g><g><path d="m437.001 97.5h-15v-52.5h-37.5v-15h52.5zm-67.5-52.5h-15v-15h15z" fill="#fff"/></g><g><path d="m120 44.999h-15v-15h15zm-30 0h-15v-15h15z" fill="#fff"/></g></g><g><path d="m332.915 68.12h30v15h-30z"/><path d="m149.086 68.12h30.002v15h-30.002z"/><path d="m15 120c0-4.136 3.364-7.5 7.5-7.5h22.5v249.502h15v-347.001h52.497v-15h-67.497v97.499h-22.5c-12.406 0-22.5 10.094-22.5 22.5v204.502h15z"/><path d="m497.002 377.002h-60.739v-36.911c0-18.878-13.796-27.928-27.918-35.051l18.673-20.539v-62.94c0-45.082-36.674-81.759-81.753-81.759-45.078 0-81.752 36.677-81.752 81.759v62.94l18.672 20.539c-14.123 7.122-27.92 16.173-27.92 35.051v36.911h-25.088v-32.55h-15v32.55h-34.176v15h157.763v-15h-30.999v-22.5h-15v22.5h-22.5v-36.911c0-11.609 9.712-16.889 25.558-24.541.973-.47 1.949-.94 2.921-1.415l22.969-11.189 4.737 33.396h39.633l4.734-33.395 22.968 11.187c.974.476 1.949.946 2.922 1.416 15.845 7.652 25.557 12.932 25.557 24.541v36.911h-22.498v-22.5h-15v22.5h-31v15h144.237v15c0 4.136-3.366 7.5-7.504 7.5h-466.999c-4.136 0-7.5-3.364-7.5-7.5v-15h150v-15h-34.174v-32.55h-15v32.55h-25.088v-47.951c0-12.734 10.502-18.445 27.637-26.709 1.031-.497 2.064-.995 3.1-1.499l31.376-15.289c6.105 2.354 12.727 3.658 19.651 3.658s13.546-1.304 19.651-3.657l31.38 15.29c1.015.493 2.03.983 3.043 1.472 7.135 3.442 13.875 6.693 18.969 10.636l9.181-11.861c-6.339-4.907-14.114-8.657-21.633-12.284-.998-.481-1.998-.964-2.993-1.448l-22.452-10.94c12.009-10.063 19.663-25.16 19.663-42.016v-24.571h15v-30c0-16.541-13.458-29.999-30.001-29.999h-94.614v29.999 54.571c0 16.856 7.654 31.953 19.662 42.016l-22.45 10.938c-1.016.495-2.033.985-3.048 1.475-16.931 8.165-36.121 17.42-36.121 40.22v47.951h-60.739v-37.501h-15v67.501c0 12.406 10.094 22.5 22.5 22.5h185.594l-10 29.999h-47.094c-12.407 0-22.5 10.094-22.5 22.501v29.999h67.498v-15h-52.498v-14.999c0-4.136 3.364-7.501 7.5-7.501h90v-15h-27.095l10-29.999h64.188l10 29.999h-12.093v15h74.999c4.135 0 7.499 3.365 7.499 7.501v14.999h-157.499v15h172.499v-29.999c0-12.407-10.093-22.501-22.499-22.501h-47.093l-10-29.999h185.592c12.409 0 22.504-10.094 22.504-22.5v-234.503h-15zm-218.489-155.441c0-36.811 29.945-66.759 66.752-66.759 36.808 0 66.753 29.948 66.753 66.759v57.142l-17.716 19.487-15.287-7.446c11.011-9.497 18.002-23.534 18.002-39.182v-19.314l-58.492-34.02-45.013 18.284v35.05c0 15.647 6.991 29.684 18.002 39.181l-15.286 7.446-17.715-19.487zm29.999 30.001v-24.952l28.836-11.714 44.669 25.98v10.686c0 20.264-16.487 36.75-36.752 36.75-20.266 0-36.753-16.487-36.753-36.75zm29.96 69.78-2.683-18.915c3.074.572 6.238.885 9.476.885 3.237 0 6.401-.313 9.475-.885l-2.682 18.915zm-205.778-156.51h79.614c8.271 0 15.001 6.729 15.001 14.999v15h-79.614c-8.272 0-15.001-6.729-15.001-15zm0 69.57v-28.608c4.417 2.562 9.539 4.036 15.001 4.036h64.614v24.571c0 21.951-17.858 39.81-39.809 39.81-21.949.001-39.806-17.857-39.806-39.809z"/><path d="m489.498 97.5h-22.497v-97.499h-339.502v15h324.502v347.001h15v-249.502h22.497c4.138 0 7.504 3.364 7.504 7.5v37.501h15v-37.501c0-12.406-10.095-22.5-22.504-22.5z"/><path d="m256 459.501h15v15h-15z"/><path d="m303.684 91.444c11.7-11.695 16.251-25.82 12.487-38.754-3.197-10.986-12.212-19.375-23.526-21.892-12.269-2.733-25.308 1.497-36.645 11.665-11.337-10.167-24.373-14.395-36.644-11.665-11.314 2.517-20.328 10.904-23.525 21.891-3.764 12.934.788 27.06 12.486 38.755l47.683 47.682zm-93.451-34.564c1.692-5.815 6.32-10.092 12.38-11.439 1.344-.299 2.717-.446 4.111-.446 7.783 0 16.191 4.6 23.642 13.079l5.634 6.411 5.634-6.412c8.786-9.997 18.902-14.602 27.754-12.633 6.06 1.349 10.688 5.625 12.381 11.44 2.188 7.518-.98 16.248-8.69 23.956l-37.079 37.077-37.077-37.076c-7.71-7.708-10.878-16.44-8.69-23.957z"/></g></g></svg>