<?xml version="1.0" encoding="utf-8"?>
<!-- Generator: Adobe Illustrator 21.0.0, SVG Export Plug-In . SVG Version: 6.00 Build 0)  -->
<svg version="1.1" id="Capa_1" xmlns="http://www.w3.org/2000/svg" xmlns:xlink="http://www.w3.org/1999/xlink" x="0px" y="0px"
	 viewBox="0 0 512 512" style="enable-background:new 0 0 512 512;" xml:space="preserve">
<style type="text/css">
	.st0{fill:#C7C8CC;}
</style>
<g>
	<g>
		<path class="st0" d="M466.2,120.1c-25.6-12.9-60.7-23.2-102-29.9C354.9,39,309.9,0,256,0s-98.9,39-108.2,90.3
			c-41.2,6.6-76.4,16.9-102,29.8C7.9,139.3,0,160,0,174c0,26.9,27.3,50.3,78.9,67.4c15.5,5.1,32.6,9.5,50.9,13.1
			c12.8,20.2,30.4,37.1,51.1,49.2C203.6,317,229.6,324,256,324s52.4-7,75.1-20.2c20.7-12,38.3-29,51.1-49.2
			c18.3-3.6,35.4-8,50.9-13.1C484.7,224.3,512,201,512,174C512,160,504,139.3,466.2,120.1z M166,110L166,110c0-49.6,40.4-90,90-90
			s90,40.4,90,90v35.2c0,3.8-2.6,7.2-6.3,8.2c-54.8,14.7-112.6,14.7-167.4,0c-3.7-1-6.3-4.4-6.3-8.2L166,110L166,110z M256,304
			c-37.6,0-73.3-16.7-97.7-44.6c30.5,4.3,63.6,6.6,97.7,6.6c34.1,0,67.2-2.3,97.7-6.6C329.3,287.3,293.6,304,256,304z M426.8,222.5
			c-15.6,5.2-33.1,9.6-51.9,13.2c-0.5,0.1-1,0.1-1.5,0.3C338,242.5,297.8,246,256,246c-41.8,0-82-3.5-117.5-10.1
			c-0.5-0.1-1-0.2-1.4-0.3c-18.8-3.5-36.2-7.9-51.9-13.2C44.4,208.9,20,190.8,20,174c0-20.5,39.5-48.6,126-63.2v34.4
			c0,12.9,8.7,24.2,21.1,27.5c29.1,7.8,59,11.7,88.9,11.7c29.9,0,59.8-3.9,88.9-11.7c12.4-3.3,21.1-14.7,21.1-27.5v-34.4
			c86.5,14.6,126,42.7,126,63.2C492,190.8,467.6,208.9,426.8,222.5z"/>
	</g>
</g>
<g>
	<g>
		<path class="st0" d="M450.3,315.6c-16.5,0-30,13.5-30,30s13.5,30,30,30s30-13.5,30-30S466.9,315.6,450.3,315.6z M450.3,355.6
			c-5.5,0-10-4.5-10-10s4.5-10,10-10s10,4.5,10,10S455.9,355.6,450.3,355.6z"/>
	</g>
</g>
<g>
	<g>
		<path class="st0" d="M263.1,209.9c-1.9-1.9-4.4-2.9-7.1-2.9c-2.6,0-5.2,1.1-7.1,2.9s-2.9,4.4-2.9,7.1s1.1,5.2,2.9,7.1
			s4.4,2.9,7.1,2.9s5.2-1.1,7.1-2.9c1.9-1.9,2.9-4.4,2.9-7.1S264.9,211.8,263.1,209.9z"/>
	</g>
</g>
<g>
	<g>
		<path class="st0" d="M81.2,155.9c-1.9-1.9-4.4-2.9-7.1-2.9c-2.6,0-5.2,1.1-7.1,2.9c-1.9,1.9-2.9,4.4-2.9,7.1
			c0,2.6,1.1,5.2,2.9,7.1s4.4,2.9,7.1,2.9c2.6,0,5.2-1.1,7.1-2.9c1.9-1.9,2.9-4.4,2.9-7.1C84.2,160.3,83.1,157.7,81.2,155.9z"/>
	</g>
</g>
<g>
	<g>
		<path class="st0" d="M444.9,155.9c-1.9-1.9-4.4-2.9-7.1-2.9c-2.6,0-5.2,1.1-7.1,2.9c-1.9,1.9-2.9,4.4-2.9,7.1
			c0,2.6,1.1,5.2,2.9,7.1s4.4,2.9,7.1,2.9c2.6,0,5.2-1.1,7.1-2.9c1.9-1.9,2.9-4.4,2.9-7.1C447.8,160.3,446.8,157.7,444.9,155.9z"/>
	</g>
</g>
<g>
	<g>
		<path class="st0" d="M370.7,199.3c-1.9-1.9-4.4-2.9-7.1-2.9c-2.6,0-5.2,1.1-7.1,2.9c-1.9,1.9-2.9,4.4-2.9,7.1
			c0,2.6,1.1,5.2,2.9,7.1c1.9,1.9,4.4,2.9,7.1,2.9c2.6,0,5.2-1.1,7.1-2.9c1.9-1.9,2.9-4.4,2.9-7.1
			C373.7,203.7,372.6,201.2,370.7,199.3z"/>
	</g>
</g>
<g>
	<g>
		<path class="st0" d="M155.4,199.3c-1.9-1.9-4.4-2.9-7.1-2.9c-2.6,0-5.2,1.1-7.1,2.9c-1.9,1.9-2.9,4.4-2.9,7.1
			c0,2.6,1.1,5.2,2.9,7.1c1.9,1.9,4.4,2.9,7.1,2.9c2.6,0,5.2-1.1,7.1-2.9c1.9-1.9,2.9-4.4,2.9-7.1
			C158.3,203.7,157.3,201.2,155.4,199.3z"/>
	</g>
</g>
<g>
	<g>
		<path class="st0" d="M196.3,99.8c-5.5,0-10,4.5-10,10l0,0.2c0,5.5,4.5,10,10,10s10-4.5,10-10l0-0.2
			C206.3,104.2,201.9,99.8,196.3,99.8z"/>
	</g>
</g>
<g>
	<g>
		<path class="st0" d="M256,40.3c-22.3,0-43.5,10.8-56.6,29c-3.2,4.5-2.2,10.7,2.3,14c1.8,1.3,3.8,1.9,5.8,1.9
			c3.1,0,6.2-1.4,8.1-4.2c9.3-12.9,24.4-20.7,40.3-20.7c5.5,0,10-4.5,10-10S261.5,40.3,256,40.3z"/>
	</g>
</g>
<g>
	<g>
		<path class="st0" d="M159.5,299.4c-5.2-1.9-10.9,0.7-12.9,5.9l-72,193.2c-1.9,5.2,0.7,10.9,5.9,12.9c1.2,0.4,2.3,0.6,3.5,0.6
			c4.1,0,7.9-2.5,9.4-6.5l72-193.2C167.3,307.1,164.7,301.3,159.5,299.4z"/>
	</g>
</g>
<g>
	<g>
		<path class="st0" d="M437.4,498.5l-72-193.2c-1.9-5.2-7.7-7.8-12.9-5.9c-5.2,1.9-7.8,7.7-5.9,12.9l72,193.2c1.5,4,5.3,6.5,9.4,6.5
			c1.2,0,2.3-0.2,3.5-0.6C436.7,509.4,439.3,503.7,437.4,498.5z"/>
	</g>
</g>
<g>
	<g>
		<path class="st0" d="M256,387.9c-5.5,0-10,4.5-10,10V475c0,5.5,4.5,10,10,10s10-4.5,10-10v-77.1C266,392.4,261.5,387.9,256,387.9z
			"/>
	</g>
</g>
<g>
	<g>
		<path class="st0" d="M263.1,349.9c-1.9-1.9-4.4-2.9-7.1-2.9c-2.6,0-5.2,1.1-7.1,2.9s-2.9,4.4-2.9,7.1s1.1,5.2,2.9,7.1
			c1.9,1.9,4.4,2.9,7.1,2.9s5.2-1.1,7.1-2.9c1.9-1.9,2.9-4.4,2.9-7.1S264.9,351.8,263.1,349.9z"/>
	</g>
</g>
<g>
	<g>
		<path class="st0" d="M83,349.9l-33-33c-1.9-1.9-4.4-2.9-7.1-2.9s-5.2,1.1-7.1,2.9l-33,33c-3.9,3.9-3.9,10.2,0,14.1l33,33
			c1.9,1.9,4.4,2.9,7.1,2.9s5.2-1.1,7.1-2.9l33-33C86.9,360.2,86.9,353.8,83,349.9z M43,375.8L24.1,357L43,338.2L61.8,357L43,375.8z
			"/>
	</g>
</g>
<g>
	<g>
		<path class="st0" d="M502,20h-9.7V10c0-5.5-4.5-10-10-10s-10,4.5-10,10v10h-9.7c-5.5,0-10,4.5-10,10s4.5,10,10,10h9.7v10
			c0,5.5,4.5,10,10,10s10-4.5,10-10V40h9.7c5.5,0,10-4.5,10-10S507.5,20,502,20z"/>
	</g>
</g>
<g>
	<g>
		<path class="st0" d="M71.1,33.9C69.2,32.1,66.6,31,64,31c-2.6,0-5.2,1.1-7.1,2.9S54,38.4,54,41c0,2.6,1.1,5.2,2.9,7.1
			S61.4,51,64,51c2.6,0,5.2-1.1,7.1-2.9c1.9-1.9,2.9-4.4,2.9-7.1S72.9,35.8,71.1,33.9z"/>
	</g>
</g>
<g>
	<g>
		<path class="st0" d="M509.1,454.9c-1.9-1.9-4.4-2.9-7.1-2.9c-2.6,0-5.2,1.1-7.1,2.9c-1.9,1.9-2.9,4.4-2.9,7.1s1.1,5.2,2.9,7.1
			c1.9,1.9,4.4,2.9,7.1,2.9s5.2-1.1,7.1-2.9c1.9-1.9,2.9-4.4,2.9-7.1S510.9,456.7,509.1,454.9z"/>
	</g>
</g>
</svg>
