<?xml version="1.0" encoding="utf-8"?>
<!-- Generator: Adobe Illustrator 21.0.0, SVG Export Plug-In . SVG Version: 6.00 Build 0)  -->
<svg version="1.1" id="Capa_1" xmlns="http://www.w3.org/2000/svg" xmlns:xlink="http://www.w3.org/1999/xlink" x="0px" y="0px"
	 viewBox="0 0 512 512" style="enable-background:new 0 0 512 512;" xml:space="preserve">
<style type="text/css">
	.st0{fill:#C7C8CC;}
</style>
<g>
	<g>
		<path class="st0" d="M496.1,71.8c-21.1-21.1-55.5-21.1-76.7,0l-5.7,5.7c-7.7,7.7-12.5,17.1-14.6,27l-1.7-1.7
			c-13.4-13.4-33-18.1-51-12.1l-42.7,14.2c-3.5,1.2-7.4,0.3-10-2.4l-29.4-29.4c-3.9-3.9-10.3-3.9-14.2,0l-1,1l-13.3-13.3
			c0.6-8.1-2.2-16.4-8.4-22.6l-10.6-10.6c-11.4-11.4-29.8-11.4-41.2,0l-16.4,16.4c-11.4,11.3-11.4,29.8,0,41.2l10.6,10.6
			c5.7,5.7,13.1,8.5,20.6,8.5c0.7,0,1.3,0,2-0.1l13.3,13.3l-0.8,0.8c-3.9,3.9-3.9,10.3,0,14.2l7.5,7.5L92.6,74.5
			c-1.2-0.7-2.5-1-3.8-1.2L46.7,47c-12.1-7.6-27.7-5.8-37.8,4.3c-6.6,6.6-9.8,15.8-8.7,25.1s6.2,17.5,14.2,22.4l31.5,19.6
			c0.6,2.2,2,4.1,3.8,5.4l39,27.7c4.5,3.2,10.8,2.1,14-2.4c3.2-4.5,2.2-10.8-2.4-14L71,114.3l18.6-18.6l159.7,87.6l-42.7,26.8
			l-51.9-35.7c-4.6-3.1-10.8-2-14,2.6c-3.1,4.6-2,10.8,2.6,14l44.8,30.7l-0.2,0.1c-2.6,1.6-4.3,4.3-4.6,7.4c-0.3,3,0.7,6.1,2.9,8.2
			l52.8,52.5v149.8v28.1c0,13.8,11.3,25.1,25.1,25.1h85.3c5.5,0,10-4.5,10-10v-3c0-26.6-20.8-48.4-46.9-50.1l30.2-135.9l8.3,8.3
			c5.7,5.7,13.1,8.5,20.6,8.5s14.9-2.8,20.6-8.5l8.6-8.6c0.6-0.6,1.1-1.2,1.6-1.8l51.6-51.2c11.2-11.1,17.4-25.9,17.4-41.7
			c0-10.8-2.8-21.1-8.2-30.1c10-2.1,19.5-7,27.2-14.7l5.7-5.7C517.3,127.3,517.3,92.9,496.1,71.8z M55.9,101L25,81.8
			c-2.7-1.7-4.5-4.5-4.9-7.7s0.7-6.3,3-8.6c2-2,4.7-3.1,7.4-3.1c1.9,0,3.8,0.5,5.5,1.6l35,21.8L55.9,101z M403.8,140.2
			c2.5,5,5.9,9.7,10.1,13.9c1.9,1.9,3.8,3.5,5.9,5.1l-26.8,5.1L403.8,140.2z M196.8,81.7c-3.5,3.5-9.3,3.5-12.8,0L173.4,71
			c-3.5-3.5-3.5-9.3,0-12.8l16.4-16.4c1.8-1.8,4.1-2.6,6.4-2.6s4.6,0.9,6.4,2.6l10.6,10.6c3.5,3.5,3.5,9.3,0,12.8L196.8,81.7z
			 M211.7,95.2l15.1-15.1l8.1,8.1l-15.1,15.1L211.7,95.2z M338.5,472.8h-74.4c-2.8,0-5-2.3-5-5v-18.1H300h9.2
			C323.4,449.7,335.3,459.6,338.5,472.8z M291.9,429.7h-32.9V309.9l27.5,27.3c1.9,1.9,4.4,2.9,7.1,2.9c0.4,0,0.8,0,1.1-0.1
			c3-0.3,5.7-2.1,7.4-4.6l16.6-26.5L291.9,429.7z M312,281.9l-24.2-24.2c-3.9-3.9-10.3-3.9-14.2,0c-3.9,3.9-3.9,10.3,0,14.2
			l27.5,27.5l-9.3,14.8l-82.4-82l58.4-36.7l60.7,60.4L312,281.9z M338,237l-57.6-57.3l40.7-9.2c5.4-1.2,8.8-6.6,7.6-12
			c-1.2-5.4-6.6-8.8-12-7.6l-53.1,11.9l-37.4-37.4l31.1-31.1l22.3,22.3c8,8,19.7,10.8,30.5,7.2l42.7-14.2
			c10.8-3.6,22.4-0.8,30.5,7.2l6.2,6.2L338,237z M387.4,278.4l-3.3,3.2c-0.4,0.4-0.7,0.8-1,1.2l-5.2,5.2c-3.5,3.5-9.3,3.5-12.8,0
			l-14.1-14.1c-1.7-1.7-2.5-3.8-2.6-6l1-4.5c0.4-0.8,1-1.5,1.6-2.2l8.6-8.6c1.8-1.8,4.1-2.6,6.4-2.6c1,0,2,0.2,3,0.5
			c1,0.9,2.1,1.5,3.2,2c0.1,0.1,0.1,0.1,0.2,0.2l14.1,14.1c1.7,1.7,2.6,4,2.6,6.4C389.2,275,388.6,276.8,387.4,278.4z M439.8,226.4
			l-33.7,33.4c-1.4-2.7-3.2-5.2-5.4-7.4l-10.1-10.1l16-16c3.9-3.9,3.9-10.3,0-14.2c-3.9-3.9-10.3-3.9-14.2,0l-18.7,18.7
			c-3.4-0.9-7-1.2-10.5-0.9l19.5-43.3l60.5-11.5c5.2,6.8,8,15,8,23.7C451.3,209.3,447.2,219.1,439.8,226.4z M482,134.2l-5.7,5.7
			c-13.3,13.3-35,13.3-48.3,0c-13.3-13.3-13.3-35,0-48.3l5.7-5.7c6.7-6.7,15.4-10,24.1-10s17.5,3.3,24.1,10
			C495.3,99.3,495.3,120.9,482,134.2z"/>
	</g>
</g>
<g>
	<g>
		<path class="st0" d="M129.6,155.8c-1.9-1.9-4.5-2.9-7.1-2.9s-5.2,1.1-7.1,2.9c-1.9,1.9-2.9,4.5-2.9,7.1c0,2.6,1.1,5.2,2.9,7.1
			c1.9,1.9,4.5,2.9,7.1,2.9s5.2-1.1,7.1-2.9c1.9-1.9,2.9-4.4,2.9-7.1C132.6,160.3,131.5,157.7,129.6,155.8z"/>
	</g>
</g>
<g>
	<g>
		<path class="st0" d="M259.9,229.8c-1.9-1.9-4.5-2.9-7.1-2.9c-2.6,0-5.2,1.1-7.1,2.9c-1.9,1.9-2.9,4.5-2.9,7.1s1.1,5.2,2.9,7.1
			c1.9,1.9,4.4,2.9,7.1,2.9c2.6,0,5.2-1.1,7.1-2.9c1.9-1.9,2.9-4.5,2.9-7.1C262.8,234.3,261.8,231.7,259.9,229.8z"/>
	</g>
</g>
<g>
	<g>
		<path class="st0" d="M143.2,222.9l-82-57.8c-4.5-3.2-10.8-2.1-14,2.4c-3.2,4.5-2.1,10.8,2.4,14l82,57.8c1.8,1.2,3.8,1.8,5.8,1.8
			c3.2,0,6.3-1.5,8.2-4.3C148.8,232.3,147.8,226,143.2,222.9z"/>
	</g>
</g>
</svg>
