<?xml version="1.0" encoding="iso-8859-1"?>
<!-- Generator: Adobe Illustrator 19.0.0, SVG Export Plug-In . SVG Version: 6.00 Build 0)  -->
<svg version="1.1" id="Capa_1" xmlns="http://www.w3.org/2000/svg" xmlns:xlink="http://www.w3.org/1999/xlink" x="0px" y="0px"
	 viewBox="0 0 512.002 512.002" style="enable-background:new 0 0 512.002 512.002;" xml:space="preserve">
<path style="fill:#FF5D5D;" d="M472.001,158.002h-432c-16.569,0-30,13.431-30,30v284c0,16.569,13.431,30,30,30h432
	c16.569,0,30-13.431,30-30v-284C502.001,171.434,488.57,158.002,472.001,158.002z"/>
<circle style="fill:#FFC66C;" cx="438" cy="226" r="20"/>
<path style="fill:#EDF2FA;" d="M291.035,158.002c0-19.279-15.628-35.407-34.907-35.407s-34.907,16.128-34.907,35.407H291.035z"/>
<circle style="fill:#4DBAF6;" cx="438" cy="310" r="20"/>
<g>
	<circle style="fill:#C9F3FF;" cx="438" cy="394" r="20"/>
	<rect x="62" y="210" style="fill:#C9F3FF;" width="304" height="240"/>
</g>
<path d="M472.001,148.002H300.015c-3.258-15.065-14.092-27.34-28.305-32.616l57.957-100.384c2.762-4.783,1.123-10.899-3.66-13.66
	c-4.781-2.76-10.898-1.122-13.66,3.66l-56.345,97.593L199.656,5.002c-2.761-4.784-8.878-6.423-13.66-3.66
	c-4.783,2.761-6.422,8.877-3.66,13.66l58.004,100.466c-14.11,5.318-24.855,17.543-28.098,32.534H40.001c-22.056,0-40,17.944-40,40
	v284c0,22.056,17.944,40,40,40h432c22.056,0,40-17.944,40-40v-284C512.001,165.946,494.057,148.002,472.001,148.002z
	 M256.128,132.595c10.371,0,19.278,6.373,23.02,15.407h-46.04C236.85,138.968,245.757,132.595,256.128,132.595z M492.001,472.002
	c0,11.028-8.972,20-20,20h-432c-11.028,0-20-8.972-20-20v-284c0-11.028,8.972-20,20-20h432c11.028,0,20,8.972,20,20V472.002z"/>
<path d="M438.001,196.002c-16.542,0-30,13.458-30,30s13.458,30,30,30s30-13.458,30-30S454.543,196.002,438.001,196.002z
	 M438.001,236.002c-5.514,0-10-4.486-10-10s4.486-10,10-10s10,4.486,10,10S443.515,236.002,438.001,236.002z"/>
<path d="M438.001,280.002c-16.542,0-30,13.458-30,30s13.458,30,30,30s30-13.458,30-30S454.543,280.002,438.001,280.002z
	 M438.001,320.002c-5.514,0-10-4.486-10-10s4.486-10,10-10s10,4.486,10,10S443.515,320.002,438.001,320.002z"/>
<path d="M438.001,364.002c-16.542,0-30,13.458-30,30s13.458,30,30,30s30-13.458,30-30S454.543,364.002,438.001,364.002z
	 M438.001,404.002c-5.514,0-10-4.486-10-10s4.486-10,10-10s10,4.486,10,10S443.515,404.002,438.001,404.002z"/>
<path d="M118.136,276.002c-5.523,0-10,4.477-10,10s4.477,10,10,10h20.278v78c0,5.523,4.477,10,10,10s10-4.477,10-10v-78h18.765
	c5.523,0,10-4.477,10-10s-4.477-10-10-10H118.136z"/>
<path d="M215.528,290.365l42.67,88c1.672,3.448,5.167,5.637,8.998,5.637s7.326-2.189,8.998-5.637l42.67-88
	c2.41-4.969,0.334-10.951-4.635-13.361c-4.97-2.411-10.952-0.334-13.361,4.635l-33.672,69.443l-33.672-69.443
	c-2.41-4.969-8.391-7.044-13.361-4.635C215.193,279.414,213.118,285.396,215.528,290.365z"/>
<path d="M366.001,200.002h-110c-5.523,0-10,4.477-10,10s4.477,10,10,10h100v220h-284v-20h77.051c5.523,0,10-4.477,10-10
	s-4.477-10-10-10H72.001v-180h99.849c5.523,0,10-4.477,10-10s-4.477-10-10-10H62.001c-5.523,0-10,4.477-10,10v240
	c0,5.523,4.477,10,10,10h304c5.523,0,10-4.477,10-10v-240C376.001,204.479,371.524,200.002,366.001,200.002z"/>
<path d="M177.221,410.002c0,2.63,1.07,5.21,2.93,7.07s4.44,2.93,7.07,2.93s5.21-1.07,7.07-2.93s2.93-4.44,2.93-7.07
	s-1.07-5.21-2.93-7.07c-1.86-1.86-4.44-2.93-7.07-2.93s-5.21,1.07-7.07,2.93C178.291,404.792,177.221,407.372,177.221,410.002z"/>
<path d="M214.001,220.002c2.63,0,5.21-1.07,7.07-2.93s2.93-4.44,2.93-7.07s-1.07-5.21-2.93-7.07c-1.86-1.86-4.44-2.93-7.07-2.93
	s-5.21,1.07-7.07,2.93c-1.86,1.86-2.93,4.44-2.93,7.07s1.07,5.21,2.93,7.07C208.791,218.932,211.371,220.002,214.001,220.002z"/>
<g>
</g>
<g>
</g>
<g>
</g>
<g>
</g>
<g>
</g>
<g>
</g>
<g>
</g>
<g>
</g>
<g>
</g>
<g>
</g>
<g>
</g>
<g>
</g>
<g>
</g>
<g>
</g>
<g>
</g>
</svg>
